<svg width="20" height="19" viewBox="0 0 20 19" fill="none" xmlns="http://www.w3.org/2000/svg">
<path d="M14.5 0C12.76 0 11.09 0.81 10 2.09C8.91 0.81 7.24 0 5.5 0C2.42 0 0 2.42 0 5.5C0 9.28005 3.4 12.3601 8.55 17.0401L10 18.35L11.45 17.0301C16.6 12.3601 20 9.28005 20 5.5C20 2.42 17.58 0 14.5 0ZM10.1 15.55L10 15.6501L9.9 15.55C5.14 11.24 2 8.39005 2 5.5C2 3.5 3.5 2 5.5 2C7.04 2 8.54 2.99 9.07 4.36H10.94C11.46 2.99 12.96 2 14.5 2C16.5 2 18 3.5 18 5.5C18 8.39005 14.86 11.24 10.1 15.55Z" fill="#C3C3C3"/>
</svg>
