<svg width="20" height="20" viewBox="0 0 20 20" fill="none" xmlns="http://www.w3.org/2000/svg">
<g clip-path="url(#clip0_127_11699)">
<path d="M11.115 0.694253C10.809 0.418784 10.4118 0.266357 10 0.266357C9.58824 0.266357 9.19105 0.418784 8.885 0.694253L0 8.69092V17.3576C0 18.0648 0.280952 18.7431 0.781049 19.2432C1.28115 19.7433 1.95942 20.0243 2.66667 20.0243H17.3333C18.0406 20.0243 18.7189 19.7433 19.219 19.2432C19.719 18.7431 20 18.0648 20 17.3576V8.69092L11.115 0.694253ZM12.5 18.3551H7.5V14.1668C7.5 13.5037 7.76339 12.8678 8.23223 12.399C8.70107 11.9301 9.33696 11.6668 10 11.6668C10.663 11.6668 11.2989 11.9301 11.7678 12.399C12.2366 12.8678 12.5 13.5037 12.5 14.1668V18.3551ZM18.3333 17.3551C18.3333 17.6203 18.228 17.8747 18.0404 18.0622C17.8529 18.2497 17.5985 18.3551 17.3333 18.3551H14.1667V14.1668C14.1667 13.0617 13.7277 12.0019 12.9463 11.2205C12.1649 10.4391 11.1051 10.0001 10 10.0001C8.89493 10.0001 7.83512 10.4391 7.05372 11.2205C6.27232 12.0019 5.83333 13.0617 5.83333 14.1668V18.3551H2.66667C2.40145 18.3551 2.1471 18.2497 1.95956 18.0622C1.77202 17.8747 1.66667 17.6203 1.66667 17.3551V9.43259L10 1.93259L18.3333 9.43259V17.3551Z" fill="#C3C3C3"/>
</g>
<defs>
<clipPath id="clip0_127_11699">
<rect width="20" height="20" fill="white"/>
</clipPath>
</defs>
</svg>
