<svg width="16" height="19" viewBox="0 0 16 19" fill="none" xmlns="http://www.w3.org/2000/svg">
<path fill-rule="evenodd" clip-rule="evenodd" d="M1.30175 12.2076C2.13524 11.3393 3.26571 10.8516 4.44445 10.8516H11.5556C12.7343 10.8516 13.8649 11.3393 14.6983 12.2076C15.5318 13.0757 16.0001 14.2533 16.0001 15.4812V17.333C16.0001 17.8445 15.6021 18.259 15.1112 18.259C14.6202 18.259 14.2223 17.8445 14.2223 17.333V15.4812C14.2223 14.7446 13.9413 14.0379 13.4412 13.517C12.9411 12.9961 12.2629 12.7035 11.5556 12.7035H4.44445C3.73721 12.7035 3.05893 12.9961 2.55883 13.517C2.05873 14.0379 1.77778 14.7446 1.77778 15.4812V17.333C1.77778 17.8445 1.37981 18.259 0.888889 18.259C0.397973 18.259 0 17.8445 0 17.333V15.4812C0 14.2533 0.468249 13.0757 1.30175 12.2076Z" fill="#C3C3C3"/>
<path fill-rule="evenodd" clip-rule="evenodd" d="M7.99999 2C6.3431 2 4.99998 3.34316 4.99998 5C4.99998 6.65686 6.3431 8 7.99999 8C9.65687 8 11 6.65686 11 5C11 3.34316 9.65687 2 7.99999 2ZM3 5C3 2.23858 5.23851 0 7.99999 0C10.7614 0 13 2.23858 13 5C13 7.76142 10.7614 10 7.99999 10C5.23851 10 3 7.76142 3 5Z" fill="#C3C3C3"/>
</svg>
