<svg width="18" height="18" viewBox="0 0 18 18" fill="none" xmlns="http://www.w3.org/2000/svg">
<g clip-path="url(#clip0_23_11112)">
<path d="M17.9998 16.9401L13.3033 12.2436C14.5233 10.7515 15.1231 8.84764 14.9787 6.92574C14.8343 5.00384 13.9567 3.21097 12.5275 1.91796C11.0983 0.624952 9.22678 -0.0692619 7.30007 -0.0210881C5.37336 0.0270858 3.53886 0.813961 2.17605 2.17678C0.813229 3.5396 0.0263534 5.37409 -0.0218205 7.3008C-0.0699943 9.22751 0.624219 11.099 1.91723 12.5283C3.21023 13.9575 5.00311 14.8351 6.92501 14.9795C8.84691 15.1239 10.7508 14.524 12.2428 13.3041L16.9393 18.0006L17.9998 16.9401ZM7.49984 13.5006C6.31315 13.5006 5.15311 13.1487 4.16642 12.4894C3.17972 11.8301 2.41068 10.893 1.95656 9.79667C1.50243 8.70031 1.38361 7.49391 1.61512 6.33003C1.84664 5.16614 2.41808 4.09704 3.2572 3.25793C4.09631 2.41881 5.16541 1.84737 6.32929 1.61586C7.49318 1.38435 8.69958 1.50317 9.79594 1.95729C10.8923 2.41142 11.8294 3.18045 12.4887 4.16715C13.1479 5.15384 13.4998 6.31388 13.4998 7.50057C13.4981 9.09132 12.8653 10.6164 11.7405 11.7412C10.6157 12.8661 9.09059 13.4988 7.49984 13.5006Z" fill="#C3C3C3"/>
</g>
<defs>
<clipPath id="clip0_23_11112">
<rect width="18" height="18" fill="white"/>
</clipPath>
</defs>
</svg>
