<svg xmlns:xlink="http://www.w3.org/1999/xlink" xmlns="http://www.w3.org/2000/svg" class="fill-current" fill="none" height="14" viewBox="0 0 16 14" width="16"><path d="M14.1176 5.25056V2.31853C14.1176 1.91579 13.96 1.52954 13.6793 1.24476C13.3987 0.959977 13.0181 0.799988 12.6212 0.799988H3.36941C2.97502 0.799988 2.59678 0.95897 2.3179 1.24196C2.03902 1.52495 1.88235 1.90877 1.88235 2.30898V5.25056C1.37524 5.29954 0.903475 5.53566 0.556518 5.91414C0.209561 6.29262 0.0115374 6.78715 0 7.30393L0 9.30955C8.01095e-05 9.84245 0.191063 10.3571 0.537368 10.7578C0.883674 11.1584 1.36169 11.4176 1.88235 11.4871V12.7096C1.88235 12.8362 1.93193 12.9577 2.02019 13.0472C2.10844 13.1368 2.22813 13.1871 2.35294 13.1871C2.47775 13.1871 2.59744 13.1368 2.6857 13.0472C2.77395 12.9577 2.82353 12.8362 2.82353 12.7096V11.3056H13.1765V12.7C13.1765 12.8267 13.2261 12.9481 13.3143 13.0377C13.4026 13.1272 13.5223 13.1775 13.6471 13.1775C13.7719 13.1775 13.8916 13.1272 13.9798 13.0377C14.0681 12.9481 14.1176 12.8267 14.1176 12.7V11.5062C14.6359 11.4432 15.1136 11.1898 15.4604 10.7939C15.8071 10.398 15.9991 9.88699 16 9.3573V7.30393C15.9885 6.78715 15.7904 6.29262 15.4435 5.91414C15.0965 5.53566 14.6248 5.29954 14.1176 5.25056ZM3.36941 1.75505H12.6212C12.766 1.75505 12.9048 1.81341 13.0072 1.91729C13.1095 2.02117 13.1671 2.16207 13.1671 2.30898V5.57528H12.2353V3.36909C12.2353 3.19432 12.1669 3.0267 12.0451 2.90312C11.9233 2.77953 11.7581 2.7101 11.5859 2.7101H9.12C8.94777 2.7101 8.78258 2.77953 8.6608 2.90312C8.53901 3.0267 8.47059 3.19432 8.47059 3.36909V5.57528H7.52941V3.36909C7.52941 3.19432 7.46099 3.0267 7.3392 2.90312C7.21741 2.77953 7.05223 2.7101 6.88 2.7101H4.41412C4.32884 2.7101 4.24439 2.72715 4.1656 2.76027C4.08681 2.79338 4.01522 2.84192 3.95491 2.90312C3.89461 2.96431 3.84678 3.03696 3.81414 3.11691C3.7815 3.19686 3.76471 3.28255 3.76471 3.36909V5.57528H2.82353V2.30898C2.82353 2.16207 2.88104 2.02117 2.98341 1.91729C3.08579 1.81341 3.22463 1.75505 3.36941 1.75505ZM11.2941 5.57528H9.41177V3.66516H11.2941V5.57528ZM6.58824 5.57528H4.70588V3.66516H6.58824V5.57528ZM13.9576 10.3506H2.04235C1.89774 10.3506 1.75455 10.3217 1.62095 10.2655C1.48735 10.2094 1.36596 10.127 1.2637 10.0233C1.16145 9.91952 1.08034 9.79634 1.025 9.66076C0.969659 9.52519 0.941176 9.37989 0.941176 9.23315V7.64775C0.941176 7.35139 1.05719 7.06717 1.2637 6.85762C1.47021 6.64806 1.7503 6.53033 2.04235 6.53033H13.9576C14.2497 6.53033 14.5298 6.64806 14.7363 6.85762C14.9428 7.06717 15.0588 7.35139 15.0588 7.64775V9.23315C15.0588 9.37989 15.0303 9.52519 14.975 9.66076C14.9197 9.79634 14.8386 9.91952 14.7363 10.0233C14.634 10.127 14.5126 10.2094 14.379 10.2655C14.2454 10.3217 14.1023 10.3506 13.9576 10.3506Z" fill="#646464"></path></svg>