<svg xmlns:xlink="http://www.w3.org/1999/xlink" xmlns="http://www.w3.org/2000/svg" class="mr-2 " fill="none" height="18" viewBox="0 0 15 18" width="15"><path d="M4.16667 10.6667C3.93056 10.6667 3.7325 10.5867 3.5725 10.4267C3.4125 10.2667 3.33278 10.0689 3.33333 9.83333C3.33333 9.59722 3.41333 9.39916 3.57333 9.23916C3.73334 9.07916 3.93111 8.99944 4.16667 8.99999C4.40278 8.99999 4.60083 9.07999 4.76084 9.23999C4.92084 9.39999 5.00056 9.59777 5 9.83333C5 10.0694 4.92 10.2675 4.76 10.4275C4.6 10.5875 4.40222 10.6672 4.16667 10.6667ZM7.5 10.6667C7.26389 10.6667 7.06583 10.5867 6.90583 10.4267C6.74583 10.2667 6.66611 10.0689 6.66667 9.83333C6.66667 9.59722 6.74667 9.39916 6.90667 9.23916C7.06667 9.07916 7.26445 8.99944 7.5 8.99999C7.73611 8.99999 7.93417 9.07999 8.09417 9.23999C8.25417 9.39999 8.33389 9.59777 8.33333 9.83333C8.33333 10.0694 8.25333 10.2675 8.09333 10.4275C7.93333 10.5875 7.73556 10.6672 7.5 10.6667ZM10.8333 10.6667C10.5972 10.6667 10.3992 10.5867 10.2392 10.4267C10.0792 10.2667 9.99945 10.0689 10 9.83333C10 9.59722 10.08 9.39916 10.24 9.23916C10.4 9.07916 10.5978 8.99944 10.8333 8.99999C11.0694 8.99999 11.2675 9.07999 11.4275 9.23999C11.5875 9.39999 11.6672 9.59777 11.6667 9.83333C11.6667 10.0694 11.5867 10.2675 11.4267 10.4275C11.2667 10.5875 11.0689 10.6672 10.8333 10.6667ZM1.66667 17.3333C1.20833 17.3333 0.815835 17.17 0.489168 16.8433C0.162501 16.5167 -0.000554141 16.1244 1.41483e-06 15.6667V3.99999C1.41483e-06 3.54166 0.163335 3.14916 0.490001 2.82249C0.816668 2.49583 1.20889 2.33277 1.66667 2.33333H2.5V1.49999C2.5 1.26388 2.58 1.06583 2.74 0.905826C2.9 0.745826 3.09778 0.666104 3.33333 0.666659C3.56945 0.666659 3.7675 0.746659 3.9275 0.906659C4.0875 1.06666 4.16722 1.26444 4.16667 1.49999V2.33333H10.8333V1.49999C10.8333 1.26388 10.9133 1.06583 11.0733 0.905826C11.2333 0.745826 11.4311 0.666104 11.6667 0.666659C11.9028 0.666659 12.1008 0.746659 12.2608 0.906659C12.4208 1.06666 12.5006 1.26444 12.5 1.49999V2.33333H13.3333C13.7917 2.33333 14.1842 2.49666 14.5108 2.82333C14.8375 3.14999 15.0006 3.54221 15 3.99999V15.6667C15 16.125 14.8367 16.5175 14.51 16.8442C14.1833 17.1708 13.7911 17.3339 13.3333 17.3333H1.66667ZM1.66667 15.6667H13.3333V7.33333H1.66667V15.6667ZM1.66667 5.66666H13.3333V3.99999H1.66667V5.66666Z" fill="#383838"></path></svg>