<svg xmlns:xlink="http://www.w3.org/1999/xlink" xmlns="http://www.w3.org/2000/svg" class="mr-3 fill-secondary-100 fill-secondary-100" fill="none" height="20" viewBox="0 0 16 20" width="16"><path d="M15.9208 7.90833L15.0806 4.26667C14.9045 3.51667 14.2803 3 13.5521 3H2.43649C1.71626 3 1.08406 3.525 0.916003 4.26667L0.0757328 7.90833C-0.116329 8.75833 0.0597277 9.625 0.571892 10.3083C0.635913 10.4 0.723941 10.4667 0.795965 10.55V16.3333C0.795965 17.25 1.5162 18 2.39648 18H13.6001C14.4804 18 15.2006 17.25 15.2006 16.3333V10.55C15.2726 10.475 15.3607 10.4 15.4247 10.3167C15.9368 9.63333 16.1209 8.75833 15.9208 7.90833ZM13.5281 4.65833L14.3683 8.3C14.4484 8.65 14.3763 9 14.1683 9.275C14.0562 9.425 13.8162 9.66667 13.416 9.66667C12.9279 9.66667 12.5037 9.25833 12.4477 8.71667L11.9836 4.66667L13.5281 4.65833ZM8.79854 4.66667H10.367L10.7992 8.43333C10.8392 8.75833 10.7432 9.08333 10.5351 9.325C10.359 9.54167 10.103 9.66667 9.77485 9.66667C9.23868 9.66667 8.79854 9.175 8.79854 8.575V4.66667ZM5.18938 8.43333L5.62952 4.66667H7.19802V8.575C7.19802 9.175 6.75788 9.66667 6.16569 9.66667C5.8936 9.66667 5.64552 9.54167 5.45346 9.325C5.2534 9.08333 5.15737 8.75833 5.18938 8.43333ZM1.62823 8.3L2.43649 4.66667H4.013L3.54885 8.71667C3.48483 9.25833 3.0687 9.66667 2.58054 9.66667C2.18841 9.66667 1.94033 9.425 1.8363 9.275C1.62023 9.00833 1.54821 8.65 1.62823 8.3ZM2.39648 16.3333V11.3083C2.4605 11.3167 2.51652 11.3333 2.58054 11.3333C3.27676 11.3333 3.90897 11.0333 4.37312 10.5417C4.85327 11.0417 5.49348 11.3333 6.22171 11.3333C6.91793 11.3333 7.54214 11.0333 8.00628 10.5583C8.47844 11.0333 9.11864 11.3333 9.83887 11.3333C10.5111 11.3333 11.1513 11.0417 11.6315 10.5417C12.0956 11.0333 12.7278 11.3333 13.424 11.3333C13.488 11.3333 13.5441 11.3167 13.6081 11.3083V16.3333H2.39648Z" fill="#222222"></path></svg>