<svg xmlns:xlink="http://www.w3.org/1999/xlink" xmlns="http://www.w3.org/2000/svg" class="mr-3 fill-secondary-100 fill-secondary-100" fill="none" height="17" viewBox="0 0 22 17" width="22"><path d="M4 17V7.85L1.2 10L0 8.4L11 0L15 3.05V1H18V5.35L22 8.4L20.8 10L18 7.85V17H12V11H10V17H4ZM6 15H8V9H14V15H16V6.325L11 2.525L6 6.325V15ZM9 7.025H13C13 6.49167 12.8 6.05417 12.4 5.7125C12 5.37083 11.5333 5.2 11 5.2C10.4667 5.2 10 5.37083 9.6 5.7125C9.2 6.05417 9 6.49167 9 7.025Z" fill="#222222"></path></svg>