<svg xmlns:xlink="http://www.w3.org/1999/xlink" xmlns="http://www.w3.org/2000/svg" class="transition-all fill-secondary-50 group-hover:fill-secondary-100" fill="none" height="24" viewBox="0 0 25 24" width="25"><g clip-path="url(#clip0_9129_6171)" fill="#909090"><path d="M19.5 3C20.2652 2.99996 21.0015 3.29233 21.5582 3.81728C22.115 4.34224 22.4501 5.06011 22.495 5.824L22.5 6V18C22.5 18.7652 22.2076 19.5015 21.6827 20.0583C21.1577 20.615 20.4399 20.9501 19.676 20.995L19.5 21H8.60796C8.13186 20.9999 7.66263 20.8865 7.23904 20.6691C6.81545 20.4518 6.44968 20.1367 6.17196 19.75L6.06396 19.59L1.98396 13.06C1.80103 12.7675 1.69689 12.4326 1.68164 12.0879C1.6664 11.7433 1.74057 11.4005 1.89696 11.093L1.98296 10.94L6.06396 4.41C6.31629 4.00619 6.66111 3.66825 7.06992 3.42411C7.47873 3.17998 7.93979 3.03665 8.41496 3.006L8.60796 3H19.5ZM19.5 5H8.60796C8.46006 5.00005 8.31402 5.0329 8.18036 5.09619C8.04669 5.15948 7.92872 5.25163 7.83496 5.366L7.75996 5.47L3.67996 12L7.75996 18.53C7.83833 18.6555 7.94356 18.762 8.06806 18.8419C8.19257 18.9218 8.33325 18.973 8.47996 18.992L8.60796 19H19.5C19.7449 19 19.9813 18.91 20.1643 18.7473C20.3474 18.5845 20.4643 18.3603 20.493 18.117L20.5 18V6C20.4999 5.75507 20.41 5.51866 20.2472 5.33563C20.0845 5.15259 19.8602 5.03566 19.617 5.007L19.5 5ZM11.379 8.464L13.499 10.586L15.621 8.464C15.7139 8.37116 15.8242 8.29752 15.9455 8.2473C16.0669 8.19708 16.197 8.17125 16.3283 8.1713C16.4597 8.17134 16.5897 8.19726 16.711 8.24757C16.8324 8.29788 16.9426 8.37159 17.0355 8.4645C17.1283 8.55741 17.2019 8.6677 17.2522 8.78907C17.3024 8.91043 17.3282 9.04051 17.3282 9.17185C17.3281 9.3032 17.3022 9.43326 17.2519 9.55459C17.2016 9.67592 17.1279 9.78616 17.035 9.879L14.915 12L17.035 14.121C17.2226 14.3085 17.3281 14.5629 17.3282 14.8281C17.3283 15.0934 17.223 15.3479 17.0355 15.5355C16.848 15.7231 16.5936 15.8286 16.3283 15.8287C16.063 15.8288 15.8086 15.7235 15.621 15.536L13.5 13.414L11.379 15.536C11.1913 15.7236 10.9368 15.8291 10.6715 15.8291C10.4061 15.8291 10.1516 15.7236 9.96396 15.536C9.77632 15.3484 9.6709 15.0939 9.6709 14.8285C9.6709 14.5631 9.77632 14.3086 9.96396 14.121L12.086 12L9.96396 9.879C9.77632 9.69136 9.6709 9.43686 9.6709 9.1715C9.6709 8.90614 9.77632 8.65164 9.96396 8.464C10.1516 8.27636 10.4061 8.17094 10.6715 8.17094C10.9368 8.17094 11.1913 8.27636 11.379 8.464Z" fill="#909090"></path></g><defs><clipPath id="clip0_9129_6171"><rect fill="white" height="24" transform="translate(0.5)" width="24"></rect></clipPath></defs></svg>