<svg width="5" height="10" viewBox="0 0 5 10" fill="none" xmlns="http://www.w3.org/2000/svg">
<path d="M2.33353 9.39961V0.599609H2.86686V9.39961H2.33353ZM4.12865 3.23961C4.08963 2.89127 3.93136 2.62086 3.65385 2.42836C3.37635 2.23586 3.03597 2.13961 2.63272 2.13961C2.33786 2.13961 2.07987 2.19002 1.85873 2.29086C1.63976 2.39169 1.46849 2.53034 1.34491 2.70679C1.2235 2.88325 1.1628 3.08377 1.1628 3.30836C1.1628 3.49627 1.20507 3.65783 1.28963 3.79304C1.37635 3.92596 1.48692 4.03711 1.62133 4.12648C1.75575 4.21356 1.89667 4.28575 2.0441 4.34304C2.19152 4.39804 2.32702 4.44273 2.4506 4.47711L3.12702 4.66961C3.30047 4.71773 3.49342 4.78419 3.70589 4.86898C3.92052 4.95377 4.1254 5.0695 4.32052 5.21617C4.51781 5.36054 4.68041 5.54617 4.80833 5.77304C4.93624 5.99992 5.0002 6.27836 5.0002 6.60836C5.0002 6.98877 4.90589 7.33252 4.71727 7.63961C4.53082 7.94669 4.25765 8.19075 3.89776 8.37179C3.54003 8.55284 3.10534 8.64335 2.59369 8.64335C2.11673 8.64335 1.70372 8.562 1.35467 8.39929C1.00778 8.23658 0.734613 8.00971 0.535155 7.71867C0.337865 7.42763 0.226212 7.08961 0.200195 6.70461H1.03272C1.0544 6.97044 1.13895 7.19044 1.28637 7.36461C1.43597 7.53648 1.62459 7.66481 1.85223 7.74961C2.08204 7.83211 2.32919 7.87335 2.59369 7.87335C2.90155 7.87335 3.17797 7.82065 3.42296 7.71523C3.66795 7.60752 3.86198 7.45856 4.00507 7.26836C4.14816 7.07586 4.21971 6.85127 4.21971 6.59461C4.21971 6.36086 4.15792 6.17065 4.03434 6.02398C3.91076 5.87731 3.74816 5.75815 3.54654 5.66648C3.34491 5.57481 3.12702 5.49461 2.89288 5.42586L2.07337 5.17836C1.55304 5.02023 1.14112 4.7945 0.837594 4.50117C0.534071 4.20784 0.382309 3.82398 0.382309 3.34961C0.382309 2.95544 0.483122 2.61169 0.684748 2.31836C0.888542 2.02273 1.16171 1.79356 1.50426 1.63086C1.84898 1.46586 2.2338 1.38336 2.65873 1.38336C3.088 1.38336 3.46957 1.46471 3.80345 1.62742C4.13732 1.78784 4.40182 2.00784 4.59694 2.28742C4.79423 2.567 4.8983 2.8844 4.90914 3.23961H4.12865Z" fill="#222222"/>
</svg>
