<svg width="374" height="334" viewBox="0 0 374 334" fill="none" xmlns="http://www.w3.org/2000/svg">
<circle cx="187.5" cy="172.5" r="157.5" fill="#E9F8F1"/>
<path d="M205.636 280.717L205.635 280.719L197.838 288.455C194.047 292.216 187.935 292.228 184.13 288.481L176.365 280.835L176.362 280.832L176.003 280.476C148.589 253.325 125.924 230.876 110.078 209.746C94.1792 188.546 85.25 168.806 85.25 147.142C85.25 111.809 110.683 84.25 142.85 84.25C156.51 84.25 169.789 89.455 180.41 98.2578C186.38 103.206 195.62 103.206 201.59 98.2578C212.211 89.455 225.49 84.25 239.15 84.25C271.316 84.25 296.75 111.809 296.75 147.142C296.75 168.806 287.821 188.546 271.922 209.731C256.021 230.92 233.252 253.423 205.709 280.645L205.636 280.717ZM127.582 200.306C142.404 219.183 163.596 240.114 189.033 265.217C190.099 266.35 191.901 266.35 192.967 265.217C218.404 240.114 239.596 219.183 254.418 200.306C269.238 181.431 277.85 164.418 277.85 147.142C277.85 123.23 261.339 105.074 239.15 105.074C224.748 105.074 210.733 113.585 203.282 126.136C201.045 129.906 197.353 132.597 193.241 132.597H188.817C184.726 132.597 181.048 129.933 178.815 126.191C171.31 113.612 157.275 105.074 142.85 105.074C120.661 105.074 104.15 123.23 104.15 147.142C104.15 164.418 112.762 181.431 127.582 200.306Z" fill="#93DAB8" stroke="#67CB9C" stroke-width="2.5"/>
<path d="M35.5 69C41.8513 69 47 63.8513 47 57.5C47 51.1487 41.8513 46 35.5 46C29.1487 46 24 51.1487 24 57.5C24 63.8513 29.1487 69 35.5 69Z" fill="#E9F8F1"/>
<path d="M332.5 46C344.374 46 354 36.3741 354 24.5C354 12.6259 344.374 3 332.5 3C320.626 3 311 12.6259 311 24.5C311 36.3741 320.626 46 332.5 46Z" fill="#E9F8F1"/>
<path d="M20.5 281C31.8218 281 41 271.822 41 260.5C41 249.178 31.8218 240 20.5 240C9.17816 240 0 249.178 0 260.5C0 271.822 9.17816 281 20.5 281Z" fill="#E9F8F1"/>
<path d="M353.5 322C364.822 322 374 312.822 374 301.5C374 290.178 364.822 281 353.5 281C342.178 281 333 290.178 333 301.5C333 312.822 342.178 322 353.5 322Z" fill="#E9F8F1"/>
<path d="M313 334C318.523 334 323 329.523 323 324C323 318.477 318.523 314 313 314C307.477 314 303 318.477 303 324C303 329.523 307.477 334 313 334Z" fill="#E9F8F1"/>
<path d="M345.993 208.836C346.226 207.721 347.774 207.721 348.004 208.836L350.007 218.555C350.093 218.961 350.401 219.279 350.795 219.368L360.191 221.469C361.27 221.71 361.27 223.289 360.191 223.531L350.795 225.632C350.401 225.72 350.093 226.038 350.007 226.444L348.004 236.163C347.774 237.279 346.226 237.279 345.993 236.163L343.989 226.444C343.907 226.038 343.599 225.72 343.205 225.632L333.809 223.531C332.73 223.289 332.73 221.71 333.809 221.469L343.205 219.368C343.599 219.279 343.907 218.961 343.989 218.555L345.993 208.836Z" fill="#67CB9C"/>
<path d="M51.4763 177.839C51.7105 176.72 53.2895 176.72 53.5237 177.839L57.0214 194.549C57.1067 194.956 57.4202 195.275 57.8224 195.364L74.1762 198.966C75.2745 199.208 75.2745 200.792 74.1766 201.034L57.8224 204.637C57.4202 204.725 57.1067 205.044 57.0214 205.451L53.5237 222.161C53.2895 223.28 51.7105 223.28 51.4763 222.161L47.9786 205.451C47.8933 205.044 47.5798 204.725 47.1776 204.637L30.8236 201.034C29.7255 200.792 29.7255 199.208 30.8236 198.966L47.1776 195.364C47.5798 195.275 47.8933 194.956 47.9786 194.549L51.4763 177.839Z" fill="#67CB9C"/>
<path d="M80.4511 13.0615C79.8496 12.9326 79.8496 12.0674 80.4511 11.9388L89.5466 9.99005C89.7659 9.94336 89.9374 9.77124 89.9848 9.55033L91.9435 0.452355C92.0732 -0.150785 92.9272 -0.150785 93.0569 0.452355L95.0152 9.55033C95.0626 9.77124 95.2341 9.94336 95.4534 9.99005L104.549 11.9388C105.15 12.0674 105.15 12.9326 104.549 13.0615L95.4534 15.0099C95.2341 15.057 95.0626 15.2288 95.0152 15.4497L93.0569 24.5476C92.9272 25.1508 92.0732 25.1508 91.9435 24.5476L89.9848 15.4497C89.9374 15.2288 89.7659 15.057 89.5466 15.0099L80.4511 13.0615Z" fill="#67CB9C"/>
</svg>
