<svg width="249" height="229" viewBox="0 0 249 229" fill="none" xmlns="http://www.w3.org/2000/svg">
<path d="M121.545 228.476C178.784 228.476 225.186 182.074 225.186 124.835C225.186 67.5949 178.784 21.1929 121.545 21.1929C64.3048 21.1929 17.9028 67.5949 17.9028 124.835C17.9028 182.074 64.3048 228.476 121.545 228.476Z" fill="#E9F8F1"/>
<path d="M24.3988 61.35C27.9865 61.35 30.8949 58.4417 30.8949 54.854C30.8949 51.2663 27.9865 48.3579 24.3988 48.3579C20.8112 48.3579 17.9028 51.2663 17.9028 54.854C17.9028 58.4417 20.8112 61.35 24.3988 61.35Z" fill="#E9F8F1"/>
<path d="M195.363 24.736C202.05 24.736 207.47 19.3159 207.47 12.6297C207.47 5.94361 202.05 0.523438 195.363 0.523438C188.677 0.523438 183.257 5.94361 183.257 12.6297C183.257 19.3159 188.677 24.736 195.363 24.736Z" fill="#E9F8F1"/>
<path d="M26.4658 203.082C32.8257 203.082 37.9815 197.926 37.9815 191.567C37.9815 185.207 32.8257 180.051 26.4658 180.051C20.1058 180.051 14.95 185.207 14.95 191.567C14.95 197.926 20.1058 203.082 26.4658 203.082Z" fill="#E9F8F1"/>
<path d="M232.568 191.862C238.928 191.862 244.084 186.706 244.084 180.346C244.084 173.986 238.928 168.831 232.568 168.831C226.208 168.831 221.052 173.986 221.052 180.346C221.052 186.706 226.208 191.862 232.568 191.862Z" fill="#E9F8F1"/>
<path d="M210.127 198.949C213.225 198.949 215.737 196.437 215.737 193.338C215.737 190.24 213.225 187.728 210.127 187.728C207.029 187.728 204.517 190.24 204.517 193.338C204.517 196.437 207.029 198.949 210.127 198.949Z" fill="#E9F8F1"/>
<path d="M237.977 144.813L239.784 153.357L248.206 155.191L239.784 157.026L237.977 165.57L236.168 157.026L227.747 155.191L236.168 153.357L237.977 144.813Z" fill="white"/>
<path d="M227.16 57.5839C227.294 56.9597 228.184 56.9597 228.316 57.5839L229.468 63.0246C229.517 63.252 229.694 63.4299 229.92 63.4794L235.32 64.6557C235.94 64.7908 235.94 65.6748 235.32 65.8099L229.92 66.9862C229.694 67.0357 229.517 67.2136 229.468 67.441L228.316 72.8817C228.184 73.5061 227.294 73.5061 227.16 72.8817L226.009 67.441C225.962 67.2136 225.784 67.0357 225.558 66.9862L220.158 65.8099C219.538 65.6748 219.538 64.7908 220.158 64.6557L225.558 63.4794C225.784 63.4299 225.962 63.252 226.009 63.0246L227.16 57.5839Z" fill="#67CB9C"/>
<path d="M12.7192 129.041C12.8513 128.416 13.7425 128.416 13.8747 129.041L15.8488 138.367C15.8969 138.594 16.0738 138.772 16.3008 138.822L25.5307 140.832C26.1506 140.967 26.1506 141.851 25.5309 141.986L16.3008 143.997C16.0738 144.047 15.8969 144.225 15.8488 144.452L13.8747 153.778C13.7425 154.403 12.8513 154.403 12.7192 153.778L10.7451 144.452C10.6969 144.225 10.52 144.047 10.293 143.997L1.06299 141.986C0.443197 141.851 0.443195 140.967 1.06299 140.832L10.293 138.822C10.52 138.772 10.6969 138.594 10.7451 138.367L12.7192 129.041Z" fill="#67CB9C"/>
<path d="M49.5122 29.7776C49.1699 29.7048 49.1699 29.216 49.5122 29.1434L54.6888 28.0424C54.8136 28.016 54.9112 27.9188 54.9382 27.794L56.053 22.654C56.1268 22.3133 56.6128 22.3133 56.6866 22.654L57.8012 27.794C57.8282 27.9188 57.9258 28.016 58.0506 28.0424L63.2272 29.1434C63.5695 29.216 63.5695 29.7048 63.2272 29.7776L58.0506 30.8784C57.9258 30.905 57.8282 31.002 57.8012 31.1268L56.6866 36.2668C56.6128 36.6075 56.1268 36.6075 56.053 36.2668L54.9382 31.1268C54.9112 31.002 54.8136 30.905 54.6888 30.8784L49.5122 29.7776Z" fill="#67CB9C"/>
<path d="M143.1 152.295C179.303 152.295 208.651 122.947 208.651 86.7441C208.651 50.5411 179.303 21.1929 143.1 21.1929C106.897 21.1929 77.5484 50.5411 77.5484 86.7441C77.5484 122.947 106.897 152.295 143.1 152.295Z" fill="#93DAB8" stroke="#67CB9C" stroke-width="2.3622"/>
<path d="M143.099 141.665C173.432 141.665 198.021 117.076 198.021 86.744C198.021 56.4118 173.432 31.8228 143.099 31.8228C112.767 31.8228 88.1782 56.4118 88.1782 86.744C88.1782 117.076 112.767 141.665 143.099 141.665Z" fill="#E9F8F1" stroke="#67CB9C" stroke-width="2.3622"/>
<path d="M57.6136 208.177L93.0421 158.971L94.6168 157.79L98.1597 157.002H103.277L106.033 158.971L108.788 160.152L111.15 162.907L113.118 167.237L82.4136 225.104L78.8707 227.073H74.5406L68.6358 225.104L63.912 223.136L59.5819 217.23L57.6136 214.868V208.177Z" fill="#93DAB8"/>
<path d="M119.811 148.342L110.829 162.907" stroke="#67CB9C" stroke-width="2.3622"/>
<path d="M109.254 143.618L100.593 156.609" stroke="#67CB9C" stroke-width="2.3622"/>
<path d="M95.4038 157.002L57.2195 209.358" stroke="#67CB9C" stroke-width="2.3622"/>
<path d="M112.724 166.45L82.0195 225.892" stroke="#67CB9C" stroke-width="2.3622"/>
<path d="M94.6163 157.789L95.2642 157.429C96.6819 156.639 98.3108 156.313 99.923 156.496C100.582 156.57 101.228 156.729 101.846 156.967L102.955 157.396L103.329 157.52C105.413 158.215 107.307 159.385 108.86 160.939L110.081 162.159C110.577 162.656 111.011 163.211 111.372 163.813C111.795 164.517 112.114 165.279 112.32 166.074L112.724 167.63" stroke="#67CB9C" stroke-width="2.3622"/>
<path d="M82.8073 225.104L81.1307 225.858C79.5065 226.589 77.7547 226.994 75.9748 227.049C74.5923 227.092 73.2114 226.925 71.8795 226.551L70.7502 226.236L70.3715 226.108C67.0248 224.972 63.9772 223.096 61.4547 220.622L59.9965 219.191C58.8563 218.073 58.0018 216.695 57.5049 215.177C56.887 213.289 56.8477 211.258 57.3921 209.348L57.6136 208.571" stroke="#67CB9C" stroke-width="2.3622"/>
</svg>
