<svg xmlns:xlink="http://www.w3.org/1999/xlink" xmlns="http://www.w3.org/2000/svg" class="mr-2 " fill="none" height="17" viewBox="0 0 21 17" width="21"><path d="M20.4196 8.1C18.3996 3.41 14.5996 0.5 10.4996 0.5C6.39958 0.5 2.59958 3.41 0.579579 8.1C0.524515 8.22617 0.496094 8.36234 0.496094 8.5C0.496094 8.63766 0.524515 8.77383 0.579579 8.9C2.59958 13.59 6.39958 16.5 10.4996 16.5C14.5996 16.5 18.3996 13.59 20.4196 8.9C20.4746 8.77383 20.5031 8.63766 20.5031 8.5C20.5031 8.36234 20.4746 8.22617 20.4196 8.1ZM10.4996 14.5C7.32958 14.5 4.32958 12.21 2.59958 8.5C4.32958 4.79 7.32958 2.5 10.4996 2.5C13.6696 2.5 16.6696 4.79 18.3996 8.5C16.6696 12.21 13.6696 14.5 10.4996 14.5ZM10.4996 4.5C9.70845 4.5 8.93509 4.7346 8.2773 5.17412C7.6195 5.61365 7.10681 6.23836 6.80406 6.96927C6.50131 7.70017 6.4221 8.50444 6.57644 9.28036C6.73078 10.0563 7.11174 10.769 7.67115 11.3284C8.23056 11.8878 8.94329 12.2688 9.71922 12.4231C10.4951 12.5775 11.2994 12.4983 12.0303 12.1955C12.7612 11.8928 13.3859 11.3801 13.8255 10.7223C14.265 10.0645 14.4996 9.29113 14.4996 8.5C14.4996 7.43913 14.0782 6.42172 13.328 5.67157C12.5779 4.92143 11.5604 4.5 10.4996 4.5ZM10.4996 10.5C10.104 10.5 9.71734 10.3827 9.38844 10.1629C9.05954 9.94318 8.80319 9.63082 8.65182 9.26537C8.50044 8.89991 8.46084 8.49778 8.53801 8.10982C8.61518 7.72186 8.80566 7.36549 9.08537 7.08579C9.36507 6.80608 9.72144 6.6156 10.1094 6.53843C10.4974 6.46126 10.8995 6.50087 11.2649 6.65224C11.6304 6.80362 11.9428 7.05996 12.1625 7.38886C12.3823 7.71776 12.4996 8.10444 12.4996 8.5C12.4996 9.03043 12.2889 9.53914 11.9138 9.91421C11.5387 10.2893 11.03 10.5 10.4996 10.5Z" fill="#383838"></path></svg>