<svg xmlns:xlink="http://www.w3.org/1999/xlink" xmlns="http://www.w3.org/2000/svg" class="fill-secondary-50 w-5 h-5" fill="none" height="26" viewBox="0 0 22 26" width="22"><path d="M7.0625 3.66921C6.7144 3.66921 6.38056 3.80964 6.13442 4.05963C5.88828 4.30961 5.75 4.64865 5.75 5.00218C5.75 5.3557 5.88828 5.69475 6.13442 5.94473C6.38056 6.19471 6.7144 6.33515 7.0625 6.33515C7.4106 6.33515 7.74444 6.19471 7.99058 5.94473C8.23672 5.69475 8.375 5.3557 8.375 5.00218C8.375 4.64865 8.23672 4.30961 7.99058 4.05963C7.74444 3.80964 7.4106 3.66921 7.0625 3.66921ZM3.34812 3.66921C3.61929 2.88871 4.12216 2.21285 4.78741 1.73479C5.45267 1.25672 6.24755 1 7.0625 1C7.87745 1 8.67233 1.25672 9.33759 1.73479C10.0028 2.21285 10.5057 2.88871 10.7769 3.66921H20.1875C20.5356 3.66921 20.8694 3.80964 21.1156 4.05963C21.3617 4.30961 21.5 4.64865 21.5 5.00218C21.5 5.3557 21.3617 5.69475 21.1156 5.94473C20.8694 6.19471 20.5356 6.33515 20.1875 6.33515H10.7769C10.5057 7.11565 10.0028 7.79151 9.33759 8.26957C8.67233 8.74763 7.87745 9.00436 7.0625 9.00436C6.24755 9.00436 5.45267 8.74763 4.78741 8.26957C4.12216 7.79151 3.61929 7.11565 3.34812 6.33515H1.8125C1.4644 6.33515 1.13056 6.19471 0.884423 5.94473C0.638281 5.69475 0.5 5.3557 0.5 5.00218C0.5 4.64865 0.638281 4.30961 0.884423 4.05963C1.13056 3.80964 1.4644 3.66921 1.8125 3.66921H3.34812ZM14.9375 11.667C14.5894 11.667 14.2556 11.8075 14.0094 12.0574C13.7633 12.3074 13.625 12.6465 13.625 13C13.625 13.3535 13.7633 13.6926 14.0094 13.9426C14.2556 14.1925 14.5894 14.333 14.9375 14.333C15.2856 14.333 15.6194 14.1925 15.8656 13.9426C16.1117 13.6926 16.25 13.3535 16.25 13C16.25 12.6465 16.1117 12.3074 15.8656 12.0574C15.6194 11.8075 15.2856 11.667 14.9375 11.667ZM11.2231 11.667C11.4943 10.8865 11.9972 10.2107 12.6624 9.73261C13.3277 9.25455 14.1226 8.99782 14.9375 8.99782C15.7524 8.99782 16.5473 9.25455 17.2126 9.73261C17.8778 10.2107 18.3807 10.8865 18.6519 11.667H20.1875C20.5356 11.667 20.8694 11.8075 21.1156 12.0574C21.3617 12.3074 21.5 12.6465 21.5 13C21.5 13.3535 21.3617 13.6926 21.1156 13.9426C20.8694 14.1925 20.5356 14.333 20.1875 14.333H18.6519C18.3807 15.1135 17.8778 15.7893 17.2126 16.2674C16.5473 16.7455 15.7524 17.0022 14.9375 17.0022C14.1226 17.0022 13.3277 16.7455 12.6624 16.2674C11.9972 15.7893 11.4943 15.1135 11.2231 14.333H1.8125C1.4644 14.333 1.13056 14.1925 0.884423 13.9426C0.638281 13.6926 0.5 13.3535 0.5 13C0.5 12.6465 0.638281 12.3074 0.884423 12.0574C1.13056 11.8075 1.4644 11.667 1.8125 11.667H11.2231ZM7.0625 19.6649C6.7144 19.6649 6.38056 19.8053 6.13442 20.0553C5.88828 20.3053 5.75 20.6443 5.75 20.9978C5.75 21.3513 5.88828 21.6904 6.13442 21.9404C6.38056 22.1904 6.7144 22.3308 7.0625 22.3308C7.4106 22.3308 7.74444 22.1904 7.99058 21.9404C8.23672 21.6904 8.375 21.3513 8.375 20.9978C8.375 20.6443 8.23672 20.3053 7.99058 20.0553C7.74444 19.8053 7.4106 19.6649 7.0625 19.6649ZM3.34812 19.6649C3.61929 18.8844 4.12216 18.2085 4.78741 17.7304C5.45267 17.2524 6.24755 16.9956 7.0625 16.9956C7.87745 16.9956 8.67233 17.2524 9.33759 17.7304C10.0028 18.2085 10.5057 18.8844 10.7769 19.6649H20.1875C20.5356 19.6649 20.8694 19.8053 21.1156 20.0553C21.3617 20.3053 21.5 20.6443 21.5 20.9978C21.5 21.3513 21.3617 21.6904 21.1156 21.9404C20.8694 22.1904 20.5356 22.3308 20.1875 22.3308H10.7769C10.5057 23.1113 10.0028 23.7872 9.33759 24.2652C8.67233 24.7433 7.87745 25 7.0625 25C6.24755 25 5.45267 24.7433 4.78741 24.2652C4.12216 23.7872 3.61929 23.1113 3.34812 22.3308H1.8125C1.4644 22.3308 1.13056 22.1904 0.884423 21.9404C0.638281 21.6904 0.5 21.3513 0.5 20.9978C0.5 20.6443 0.638281 20.3053 0.884423 20.0553C1.13056 19.8053 1.4644 19.6649 1.8125 19.6649H3.34812Z" stroke="#EEEEEE" stroke-width="0.5px" fill="#909090"></path></svg>