<svg xmlns:xlink="http://www.w3.org/1999/xlink" xmlns="http://www.w3.org/2000/svg" class="fill-current" fill="none" height="14" viewBox="0 0 14 14" width="14"><path clip-rule="evenodd" d="M1.86667 0.933333H12.1333C12.6488 0.933333 13.0667 1.3512 13.0667 1.86667V12.1333C13.0667 12.6488 12.6488 13.0667 12.1333 13.0667H1.86667C1.3512 13.0667 0.933333 12.6488 0.933333 12.1333V1.86667C0.933333 1.3512 1.3512 0.933333 1.86667 0.933333ZM0 1.86667C0 0.835735 0.835735 0 1.86667 0H12.1333C13.1643 0 14 0.835735 14 1.86667V12.1333C14 13.1643 13.1643 14 12.1333 14H1.86667C0.835735 14 0 13.1643 0 12.1333V1.86667ZM3 10.1579V11H5.31579V9.10526H7.21053V7.21053H9.10526V5.31579H11V3H10.1579V4.47368H8.26316V6.36842H6.36842V8.26316H4.47368V10.1579H3Z" fill="#646464" fill-rule="evenodd"></path></svg>