<svg width="20" height="20" viewBox="0 0 20 20" fill="none" xmlns="http://www.w3.org/2000/svg">
<path d="M2.50016 10.0002C2.50016 5.85803 5.85803 2.50016 10.0002 2.50016C14.1423 2.50016 17.5002 5.85803 17.5002 10.0002C17.5002 14.1423 14.1423 17.5002 10.0002 17.5002C5.85803 17.5002 2.50016 14.1423 2.50016 10.0002ZM10.0002 0.833496C4.93755 0.833496 0.833496 4.93755 0.833496 10.0002C0.833496 15.0628 4.93755 19.1668 10.0002 19.1668C15.0628 19.1668 19.1668 15.0628 19.1668 10.0002C19.1668 4.93755 15.0628 0.833496 10.0002 0.833496ZM8.7793 7.19725C8.46906 7.52585 8.3335 7.91156 8.3335 8.16683C8.3335 8.62707 7.9604 9.00016 7.50016 9.00016C7.03992 9.00016 6.66683 8.62707 6.66683 8.16683C6.66683 7.4221 7.01221 6.64114 7.56744 6.05307C8.13788 5.44889 8.97456 5.00016 10.0002 5.00016C10.9802 5.00016 11.8279 5.35999 12.4287 5.98708C13.0243 6.60872 13.3335 7.44687 13.3335 8.3335C13.3335 9.28867 12.902 10.1074 12.329 10.7232C11.7582 11.3367 11.0109 11.7917 10.2637 12.0407C9.82707 12.1863 9.35513 11.9503 9.20959 11.5137C9.06405 11.0771 9.30002 10.6051 9.73664 10.4596C10.2395 10.292 10.7422 9.9819 11.1088 9.58784C11.4734 9.19608 11.6668 8.76478 11.6668 8.3335C11.6668 7.83366 11.4951 7.42181 11.2252 7.14007C10.9605 6.86377 10.5582 6.66683 10.0002 6.66683C9.48766 6.66683 9.07434 6.88477 8.7793 7.19725ZM10.8335 14.1668C10.8335 14.6271 10.4604 15.0002 10.0002 15.0002C9.53993 15.0002 9.16683 14.6271 9.16683 14.1668C9.16683 13.7066 9.53993 13.3335 10.0002 13.3335C10.4604 13.3335 10.8335 13.7066 10.8335 14.1668Z" fill="#C3C3C3"/>
</svg>
