<svg xmlns:xlink="http://www.w3.org/1999/xlink" xmlns="http://www.w3.org/2000/svg" class="mr-3 fill-secondary-100 fill-secondary-100" fill="none" height="18" viewBox="0 0 18 18" width="18"><path d="M7 1C7 0.734784 7.10536 0.48043 7.29289 0.292893C7.48043 0.105357 7.73478 0 8 0H10C10.2652 0 10.5196 0.105357 10.7071 0.292893C10.8946 0.48043 11 0.734784 11 1C11 1.26522 10.8946 1.51957 10.7071 1.70711C10.5196 1.89464 10.2652 2 10 2H8C7.73478 2 7.48043 1.89464 7.29289 1.70711C7.10536 1.51957 7 1.26522 7 1ZM14.5 2C14.2348 2 13.9804 1.89464 13.7929 1.70711C13.6054 1.51957 13.5 1.26522 13.5 1C13.5 0.734784 13.6054 0.48043 13.7929 0.292893C13.9804 0.105357 14.2348 0 14.5 0C15.4283 0 16.3185 0.368749 16.9749 1.02513C17.6313 1.6815 18 2.57174 18 3.5C18 3.76522 17.8946 4.01957 17.7071 4.20711C17.5196 4.39464 17.2652 4.5 17 4.5C16.7348 4.5 16.4804 4.39464 16.2929 4.20711C16.1054 4.01957 16 3.76522 16 3.5C16 3.10218 15.842 2.72064 15.5607 2.43934C15.2794 2.15804 14.8978 2 14.5 2ZM3.5 0C3.76522 0 4.01957 0.105357 4.20711 0.292893C4.39464 0.48043 4.5 0.734784 4.5 1C4.5 1.26522 4.39464 1.51957 4.20711 1.70711C4.01957 1.89464 3.76522 2 3.5 2C3.10218 2 2.72064 2.15804 2.43934 2.43934C2.15804 2.72064 2 3.10218 2 3.5C2 3.76522 1.89464 4.01957 1.70711 4.20711C1.51957 4.39464 1.26522 4.5 1 4.5C0.734784 4.5 0.48043 4.39464 0.292893 4.20711C0.105357 4.01957 0 3.76522 0 3.5C0 2.57174 0.368749 1.6815 1.02513 1.02513C1.6815 0.368749 2.57174 0 3.5 0ZM1 13.5C0.734784 13.5 0.48043 13.6054 0.292893 13.7929C0.105357 13.9804 0 14.2348 0 14.5C0 15.4283 0.368749 16.3185 1.02513 16.9749C1.6815 17.6313 2.57174 18 3.5 18C3.76522 18 4.01957 17.8946 4.20711 17.7071C4.39464 17.5196 4.5 17.2652 4.5 17C4.5 16.7348 4.39464 16.4804 4.20711 16.2929C4.01957 16.1054 3.76522 16 3.5 16C3.10218 16 2.72064 15.842 2.43934 15.5607C2.15804 15.2794 2 14.8978 2 14.5C2 14.2348 1.89464 13.9804 1.70711 13.7929C1.51957 13.6054 1.26522 13.5 1 13.5ZM8 16C7.73478 16 7.48043 16.1054 7.29289 16.2929C7.10536 16.4804 7 16.7348 7 17C7 17.2652 7.10536 17.5196 7.29289 17.7071C7.48043 17.8946 7.73478 18 8 18H10C10.2652 18 10.5196 17.8946 10.7071 17.7071C10.8946 17.5196 11 17.2652 11 17C11 16.7348 10.8946 16.4804 10.7071 16.2929C10.5196 16.1054 10.2652 16 10 16H8ZM14.5 16C14.2348 16 13.9804 16.1054 13.7929 16.2929C13.6054 16.4804 13.5 16.7348 13.5 17C13.5 17.2652 13.6054 17.5196 13.7929 17.7071C13.9804 17.8946 14.2348 18 14.5 18C15.4283 18 16.3185 17.6313 16.9749 16.9749C17.6313 16.3185 18 15.4283 18 14.5C18 14.2348 17.8946 13.9804 17.7071 13.7929C17.5196 13.6054 17.2652 13.5 17 13.5C16.7348 13.5 16.4804 13.6054 16.2929 13.7929C16.1054 13.9804 16 14.2348 16 14.5C16 14.8978 15.842 15.2794 15.5607 15.5607C15.2794 15.842 14.8978 16 14.5 16ZM17 7C17.2652 7 17.5196 7.10536 17.7071 7.29289C17.8946 7.48043 18 7.73478 18 8V10C18 10.2652 17.8946 10.5196 17.7071 10.7071C17.5196 10.8946 17.2652 11 17 11C16.7348 11 16.4804 10.8946 16.2929 10.7071C16.1054 10.5196 16 10.2652 16 10V8C16 7.73478 16.1054 7.48043 16.2929 7.29289C16.4804 7.10536 16.7348 7 17 7ZM0 10C0 10.2652 0.105357 10.5196 0.292893 10.7071C0.48043 10.8946 0.734784 11 1 11C1.26522 11 1.51957 10.8946 1.70711 10.7071C1.89464 10.5196 2 10.2652 2 10V8C2 7.73478 1.89464 7.48043 1.70711 7.29289C1.51957 7.10536 1.26522 7 1 7C0.734784 7 0.48043 7.10536 0.292893 7.29289C0.105357 7.48043 0 7.73478 0 8V10Z" fill="#222222"></path></svg>