<svg width="8" height="10" viewBox="0 0 8 10" fill="none" xmlns="http://www.w3.org/2000/svg">
<path d="M1.28261 5.5744C1.28261 7.43614 2.49221 8.57556 4.21061 8.57556H7.15781V9.39961H1.05221V8.6366H2.19461C1.08101 8.1381 0.399414 6.98851 0.399414 5.51336C0.399414 3.65163 1.38821 2.33926 2.81861 1.87128V0.599609H3.38501V1.73903C3.58661 1.70851 3.79781 1.68816 4.00901 1.68816C4.22981 1.68816 4.44101 1.70851 4.64261 1.73903V0.599609H5.20901V1.88146C6.62021 2.34943 7.59941 3.68215 7.59941 5.59475H6.71621C6.71621 4.07891 6.11141 3.13278 5.20901 2.72585V5.59475H4.64261V2.54273C4.44101 2.50203 4.22981 2.48169 4.00901 2.48169C3.79781 2.48169 3.58661 2.50203 3.38501 2.54273V5.59475H2.81861V2.71568C1.89701 3.12261 1.28261 4.05857 1.28261 5.5744Z" fill="white"/>
</svg>
