<svg width="20" height="19" viewBox="0 0 20 19" fill="none" xmlns="http://www.w3.org/2000/svg">
<path d="M9.99999 18.35C15 14.7349 20 10.707 20 5.35686C20.0019 4.65371 19.8738 3.9571 19.6232 3.30708C19.3726 2.65706 19.0044 2.06647 18.5397 1.56926C18.0751 1.07206 17.5231 0.678047 16.9156 0.409894C16.3081 0.14174 15.6571 0.00473227 15 0.00674993C13.7143 0.00674993 12.4428 0.526475 11.4643 1.57357L9.99999 3.14039L8.53571 1.57357C8.07237 1.07488 7.52146 0.679129 6.91467 0.409076C6.30788 0.139024 5.65718 0 5 0C4.34281 0 3.69212 0.139024 3.08533 0.409076C2.47854 0.679129 1.92763 1.07488 1.46429 1.57357C0.999374 2.06991 0.630684 2.65964 0.379397 3.3089C0.12811 3.95815 -0.000823106 4.65414 3.95385e-06 5.35686C3.95385e-06 10.707 5 14.7349 9.99999 18.35Z" fill="black"/>
</svg>
