<svg xmlns:xlink="http://www.w3.org/1999/xlink" xmlns="http://www.w3.org/2000/svg" class="flex-shrink-0" fill="none" height="15" viewBox="0 0 13 15" width="13"><path d="M6.5 3.21441C5.9606 3.21441 5.43331 3.37151 4.98481 3.66585C4.53631 3.96019 4.18675 4.37854 3.98033 4.868C3.77391 5.35747 3.7199 5.89606 3.82513 6.41567C3.93036 6.93528 4.19011 7.41258 4.57153 7.7872C4.95294 8.16182 5.4389 8.41693 5.96794 8.52029C6.49697 8.62365 7.04534 8.5706 7.54368 8.36786C8.04203 8.16512 8.46797 7.82178 8.76764 7.38128C9.06732 6.94077 9.22727 6.42288 9.22727 5.89309C9.22547 5.1832 8.93756 4.5029 8.42648 4.00093C7.91541 3.49896 7.22276 3.21618 6.5 3.21441ZM6.5 7.50029C6.17636 7.50029 5.85998 7.40603 5.59088 7.22943C5.32179 7.05283 5.11205 6.80182 4.9882 6.50814C4.86434 6.21446 4.83194 5.8913 4.89508 5.57954C4.95822 5.26777 5.11407 4.98139 5.34292 4.75662C5.57177 4.53185 5.86334 4.37878 6.18076 4.31676C6.49818 4.25475 6.8272 4.28658 7.12621 4.40822C7.42522 4.52987 7.68078 4.73587 7.86059 5.00017C8.04039 5.26447 8.13636 5.57521 8.13636 5.89309C8.13457 6.3188 7.96159 6.72658 7.6551 7.0276C7.34861 7.32863 6.93344 7.49853 6.5 7.50029ZM6.5 0C4.90926 0.00177243 3.38418 0.623219 2.25935 1.728C1.13453 2.83279 0.501805 4.33069 0.5 5.89309C0.5 7.99585 1.48864 10.2258 3.36364 12.3353C4.20647 13.2908 5.15299 14.1531 6.18636 14.9068C6.27927 14.9676 6.38839 15 6.5 15C6.61161 15 6.72073 14.9676 6.81364 14.9068C7.85003 14.1542 8.79892 13.2919 9.64318 12.3353C11.5114 10.2258 12.5 7.99585 12.5 5.89309C12.4982 4.33069 11.8655 2.83279 10.7406 1.728C9.61582 0.623219 8.09075 0.00177243 6.5 0ZM6.5 13.7952C5.375 12.9246 1.59091 9.72359 1.59091 5.89309C1.59091 4.61431 2.10812 3.38792 3.02875 2.48369C3.94938 1.57946 5.19803 1.07147 6.5 1.07147C7.80197 1.07147 9.05062 1.57946 9.97125 2.48369C10.8919 3.38792 11.4091 4.61431 11.4091 5.89309C11.4091 9.72359 7.625 12.9246 6.5 13.7952Z" fill="#222222"></path></svg>