<svg width="108" height="31" viewBox="0 0 108 31" fill="none" xmlns="http://www.w3.org/2000/svg">
<path d="M92.8513 0H14.8956C6.6725 0 0 6.7399 0 15.0461V15.9005C0 24.2067 6.6725 30.9466 14.8956 30.9466H92.8043C101.027 30.9466 107.7 24.2067 107.7 15.9005V15.0461C107.747 6.7399 101.074 0 92.8513 0Z" fill="#26B571"/>
<path d="M79.2242 15.8049C79.2242 22.2126 74.0553 27.4337 67.6647 27.4337H15.5064C9.16282 27.4337 3.94702 22.2126 3.94702 15.8049V15.1405C3.94702 8.73282 9.11583 3.51172 15.5064 3.51172H67.6178C73.9613 3.51172 79.1772 8.73282 79.1772 15.1405V15.8049H79.2242Z" fill="white"/>
<path d="M85.4738 17.7523C85.4738 18.4643 84.863 19.0813 84.1581 19.0813C83.4063 19.0813 82.8424 18.4643 82.8424 17.7523C82.8424 17.0403 83.4063 16.4233 84.1581 16.4233C84.863 16.4233 85.4738 17.0403 85.4738 17.7523Z" fill="white"/>
<path d="M93.1331 11.6769C92.6632 11.7719 92.0994 11.8668 91.3005 11.8668C92.2873 12.294 92.7572 12.8636 92.7572 13.8604C92.7572 15.3792 91.5355 16.4234 89.5619 16.4234C89.233 16.4234 88.9511 16.4234 88.6691 16.3285C88.4812 16.4234 88.3872 16.6132 88.3872 16.7556C88.3872 16.9929 88.4812 17.2303 89.233 17.2303H90.4077C92.1933 17.2303 93.3211 18.1795 93.3211 19.4611C93.3211 21.0748 91.9114 22.0241 89.28 22.0241C86.6956 22.0241 85.8028 21.2647 85.6618 19.9832C85.6148 19.7458 85.8498 19.5561 86.0847 19.5561H87.3534C87.5414 19.5561 87.6824 19.6509 87.7293 19.8408C87.8233 20.3155 88.2462 20.5054 89.374 20.5054C90.7367 20.5054 91.0186 20.1256 91.0186 19.6509C91.0186 19.1763 90.7367 18.8915 89.9378 18.8915H88.8101C87.1185 18.8915 86.4606 18.1795 86.4606 17.3726C86.4606 16.8031 86.8365 16.2335 87.3534 15.9013C86.3666 15.3792 85.9907 14.7146 85.9907 13.6705C85.9907 11.9143 87.3534 10.8226 89.374 10.8226C90.8306 10.8701 91.7704 10.5379 92.5693 10.0633C92.7572 9.96827 93.0392 10.0633 93.1331 10.3005L93.4151 11.1548C93.509 11.3922 93.3681 11.6295 93.1331 11.6769ZM88.2932 13.6705C88.2932 14.5248 88.7631 14.9995 89.468 14.9995C90.2198 14.9995 90.5957 14.5248 90.5957 13.6705C90.5957 12.8161 90.2198 12.3889 89.468 12.3889C88.7631 12.3415 88.2932 12.8635 88.2932 13.6705Z" fill="white"/>
<path d="M100.839 15.6645H96.0935C96.2344 17.041 96.8923 17.4207 97.8321 17.4207C98.349 17.4207 98.8189 17.2782 99.3358 16.9461C99.5237 16.8036 99.7587 16.8986 99.8526 17.041L100.323 17.7054C100.463 17.8953 100.417 18.1326 100.229 18.2751C99.5237 18.7497 98.6309 19.1293 97.5502 19.1293C95.0127 19.1293 93.697 17.4681 93.697 15.0474C93.697 12.7217 94.9657 10.8706 97.2682 10.8706C99.4767 10.8706 100.792 12.342 100.792 14.8576C100.839 15.0474 100.839 15.4272 100.839 15.6645ZM98.6309 14.1456C98.5839 13.1014 98.302 12.342 97.3622 12.342C96.6104 12.342 96.1405 12.8167 96.0465 14.2406H98.5839V14.1456H98.6309Z" fill="white"/>
<path d="M22.5082 13.4792V19.2698C22.5082 19.5071 22.3203 19.697 22.0853 19.697H20.3937C20.1588 19.697 19.9708 19.5071 19.9708 19.2698V13.9064C19.9708 13.0046 19.6889 12.7672 19.266 12.7672C18.7491 12.7672 18.3732 13.1944 17.9973 13.8589V19.2223C17.9973 19.4597 17.8093 19.6495 17.5744 19.6495H15.8357C15.6478 19.6495 15.4598 19.4597 15.4598 19.2223V13.9064C15.4598 13.0046 15.1309 12.7672 14.708 12.7672C14.1911 12.7672 13.8152 13.1944 13.4393 13.8589V19.2223C13.4393 19.4597 13.2513 19.6495 13.0634 19.6495H11.3248C11.1368 19.6495 10.9019 19.4597 10.9019 19.2223V11.5806C10.9019 11.3433 11.0898 11.1535 11.3248 11.1535H12.7814C12.9694 11.1535 13.1104 11.2958 13.1573 11.4857L13.2983 12.1502C13.9562 11.2958 14.708 10.8687 15.7418 10.8687C16.6816 10.8687 17.3864 11.3433 17.7153 12.1977C18.3732 11.2958 19.172 10.8687 20.2058 10.8687C21.6154 10.9161 22.5082 11.8654 22.5082 13.4792Z" fill="#414042"/>
<path d="M62.8251 13.4792V19.2698C62.8251 19.5071 62.6372 19.697 62.4022 19.697H60.7106C60.4757 19.697 60.2877 19.5071 60.2877 19.2698V13.9064C60.2877 13.0046 60.0058 12.7672 59.5829 12.7672C59.066 12.7672 58.6901 13.1944 58.3142 13.8589V19.2223C58.3142 19.4597 58.1262 19.6495 57.8912 19.6495H56.1526C55.9647 19.6495 55.7767 19.4597 55.7767 19.2223V13.9064C55.7767 13.0046 55.4478 12.7672 55.0249 12.7672C54.508 12.7672 54.1321 13.1944 53.7562 13.8589V19.2223C53.7562 19.4597 53.5682 19.6495 53.3803 19.6495H51.6416C51.4537 19.6495 51.2188 19.4597 51.2188 19.2223V11.5806C51.2188 11.3433 51.4067 11.1535 51.6416 11.1535H53.0983C53.2863 11.1535 53.4273 11.2958 53.4742 11.4857L53.6152 12.1502C54.2731 11.2958 55.0249 10.8687 56.0587 10.8687C56.9985 10.8687 57.7033 11.3433 58.0322 12.1977C58.6901 11.2958 59.4889 10.8687 60.5227 10.8687C61.9323 10.9161 62.8251 11.8654 62.8251 13.4792Z" fill="#414042"/>
<path d="M29.0395 19.6982C28.3817 21.7392 27.066 22.9258 24.7165 23.1631C24.5286 23.1631 24.2936 23.0207 24.2936 22.8308L24.1526 21.8341C24.1057 21.6442 24.2466 21.4069 24.4346 21.4069C25.5623 21.2171 26.1732 20.8373 26.5491 20.1253C26.2672 20.0779 25.9382 19.6032 25.8443 19.271L23.5418 11.7242C23.4478 11.4869 23.6358 11.2021 23.9177 11.2021H25.7033C25.8913 11.2021 26.0322 11.3445 26.1262 11.5343L27.5359 18.0844L29.1335 11.5343C29.1805 11.3445 29.3215 11.2496 29.5094 11.2496H31.248C31.53 11.2496 31.7179 11.5343 31.624 11.7717L29.0395 19.6982Z" fill="#414042"/>
<path d="M49.7148 15.4256C49.7148 18.1311 48.1642 19.9347 45.6267 19.9347C43.0892 19.9347 41.5386 18.2735 41.5386 15.4256C41.5386 12.7201 43.0892 10.9165 45.6267 10.9165C48.1642 10.9165 49.7148 12.5778 49.7148 15.4256ZM44.076 15.4256C44.076 17.2767 44.5929 18.0836 45.5797 18.0836C46.5664 18.0836 47.0834 17.2767 47.0834 15.4256C47.0834 13.527 46.5664 12.7676 45.5797 12.7676C44.5929 12.7676 44.076 13.5745 44.076 15.4256Z" fill="#414042"/>
<path d="M72.129 15.2841C72.129 12.5312 70.6723 10.9648 68.2759 10.9648C65.7384 10.9648 64.3757 12.9584 64.3757 15.5214C64.3757 18.1794 65.7854 19.983 68.6048 19.983C69.6855 19.983 70.5783 19.6508 71.3302 19.1761C71.3772 19.1761 71.3772 19.1287 71.4241 19.1287C71.4711 19.1287 71.5181 19.0812 71.5181 19.0338C71.7061 18.8914 71.7531 18.654 71.6121 18.5117L71.0952 17.7048C70.9073 17.4199 70.6253 17.5624 70.5783 17.5624C70.4844 17.6098 70.3904 17.7048 70.2494 17.7522C69.7795 18.037 69.3096 18.1319 68.7927 18.1319C67.759 18.1319 67.0541 17.7048 66.8662 16.1859H72.082C72.082 15.9486 72.129 15.5688 72.129 15.2841ZM69.6855 14.667H66.9132C67.0071 13.1482 67.524 12.6261 68.3698 12.6261C69.3566 12.6261 69.7325 13.433 69.7325 14.5721V14.667H69.6855Z" fill="#414042"/>
<path d="M39.988 13.4798C39.988 11.866 39.0952 10.9167 37.6855 10.9167C36.6987 10.9167 35.9469 11.2964 35.289 12.1033V9.20799V7.9739C35.289 7.73662 35.1011 7.54672 34.8661 7.59425L33.1745 7.78408C32.9865 7.83153 32.7986 7.9739 32.7986 8.21126V8.25872V19.2229V19.3179C32.7986 19.5552 32.9865 19.745 33.2215 19.745H34.9131C35.1481 19.745 35.336 19.5552 35.336 19.3179V13.907C35.7589 13.2424 36.2288 12.8153 36.7927 12.8153C37.2626 12.8153 37.5915 13.0526 37.5915 13.9544V19.2229V19.3179C37.5915 19.5552 37.7795 19.745 38.0144 19.745H39.706C39.941 19.745 40.1289 19.5552 40.1289 19.3179L39.988 13.4798Z" fill="#414042"/>
</svg>
