<svg width="56" height="56" viewBox="0 0 56 56" fill="none" xmlns="http://www.w3.org/2000/svg">
<g clip-path="url(#clip0_130_10179)">
<mask id="mask0_130_10179" style="mask-type:luminance" maskUnits="userSpaceOnUse" x="0" y="0" width="56" height="56">
<path d="M56 0H0V56H56V0Z" fill="white"/>
</mask>
<g mask="url(#mask0_130_10179)">
<path fill-rule="evenodd" clip-rule="evenodd" d="M28.3221 0C43.5345 0 55.8664 12.3897 55.8664 27.6728C55.8664 42.9555 43.5345 55.3448 28.3221 55.3448C13.1097 55.3448 0.777832 42.9555 0.777832 27.6728C0.777832 12.3897 13.1097 0 28.3221 0Z" fill="#93DAB8"/>
<path fill-rule="evenodd" clip-rule="evenodd" d="M38.9414 39.0456C37.6954 38.4681 35.0963 37.655 34.8254 35.7132C34.6707 34.6065 34.6613 33.525 34.6595 33.2912C34.6518 32.2335 34.6819 31.1506 34.7785 30.0177C33.3701 32.6542 31.0426 34.3391 27.6599 34.2681C25.2918 34.2184 23.2058 32.2398 21.8509 29.6152C22.0294 30.9977 22.1278 32.3186 22.1635 33.6297C22.1652 33.6892 22.1509 34.1127 22.1355 34.5628C22.0693 36.5011 19.9399 37.8937 18.0503 38.551C22.8929 47.0273 33.7152 47.2118 38.9414 39.0456Z" fill="white"/>
<path fill-rule="evenodd" clip-rule="evenodd" d="M27.6775 34.3047C31.0599 34.3757 33.387 32.6912 34.7965 30.0543C35.2823 29.1443 35.6575 28.1198 35.9308 27.0159C35.9172 26.4367 36.109 25.5165 36.1891 24.2765C36.2511 23.3308 36.3795 22.4677 36.579 21.7936L36.5801 21.7792C36.5538 21.8142 36.5276 21.8499 36.4978 21.8863C36.3508 19.4979 35.5434 15.3403 35.2021 14.319C34.4356 13.6813 33.4917 12.3754 25.4322 12.6162C24.4956 12.3453 21.9287 14.3022 21.8972 14.3522C21.612 14.8069 21.2228 15.712 20.9855 17.0539C20.1987 21.5083 20.5959 20.2564 20.3352 21.8895C20.2914 21.8597 20.1833 21.7372 20.0391 21.579C20.0496 21.6833 20.0587 21.7869 20.0695 21.8923C20.2323 22.5363 20.3355 23.3273 20.3828 24.1855C20.4195 24.8582 20.4899 25.436 20.5434 25.918C20.8175 27.2158 21.2714 28.4957 21.8682 29.6521C23.2227 32.2764 25.3087 34.2553 27.6775 34.3047Z" fill="white"/>
<path fill-rule="evenodd" clip-rule="evenodd" d="M19.9511 21.4834C19.9822 21.5163 20.0106 21.5478 20.0386 21.5786C20.1831 21.7368 20.2913 21.859 20.335 21.8891C20.5954 20.256 20.1985 21.5079 20.985 17.0531C21.2223 15.7116 21.6115 14.8065 21.8971 14.3511C22.4347 13.4989 34.9811 15.8761 35.0203 15.9086C35.3616 16.9306 36.0311 19.8461 36.4973 21.8859C36.5274 21.8492 36.5537 21.8142 36.5803 21.7788L36.5848 21.7725C36.8501 20.8881 37.24 20.3365 37.7678 20.3708C37.8203 20.3743 37.87 20.3858 37.9197 20.4012C38.0877 18.5966 38.0289 16.6471 37.9425 14.6595C37.9953 8.92017 31.612 6.66792 27.0281 6.95597C18.9788 7.46102 17.4836 12.991 18.7142 20.3806C19.4478 20.3806 19.7628 20.9136 19.9511 21.4834Z" fill="#D4F0E3"/>
<path fill-rule="evenodd" clip-rule="evenodd" d="M35.6269 15.0713C35.6206 15.0801 35.6153 15.0899 35.6069 15.0979C35.6181 15.092 35.6237 15.0825 35.6269 15.0713Z" fill="#AFE6C2"/>
<path fill-rule="evenodd" clip-rule="evenodd" d="M34.931 15.8672L35.0206 15.9085C35.0157 15.897 34.9835 15.8833 34.931 15.8672ZM20.7 18.8296C20.6888 18.8303 20.678 18.8268 20.6675 18.8251C20.6773 18.8314 20.6881 18.8338 20.7 18.8296Z" fill="#7F7F7E"/>
<path fill-rule="evenodd" clip-rule="evenodd" d="M19.3803 24.21C19.5178 24.7931 19.7887 24.8764 19.7688 25.3563C19.6907 27.2267 19.2123 25.6982 18.9197 25.134C18.5574 24.4358 18.4636 23.0333 18.5347 22.502C18.6057 21.97 18.8182 20.927 19.2375 20.9487C19.64 20.9694 20.2427 22.3942 19.6774 23.0561C19.5294 23.2297 19.2427 23.6276 19.3803 24.21ZM20.131 21.893C20.0946 21.7485 20.0551 21.6123 20.012 21.4839C19.7576 20.7121 19.3932 20.2379 18.9057 20.2648C18.7825 20.2718 18.6691 20.3138 18.5648 20.3831C17.8767 20.8395 17.6138 22.5461 18.1644 24.1579C18.7979 26.0146 19.1836 27.6932 20.1149 27.6418C20.7621 27.6061 20.7267 27.0146 20.6049 25.9184C20.5514 25.4364 20.4807 24.8586 20.4439 24.1859C20.397 23.3273 20.2934 22.537 20.131 21.893Z" fill="white"/>
<path fill-rule="evenodd" clip-rule="evenodd" d="M19.238 20.9486C18.8184 20.9269 18.6059 21.9706 18.5345 22.5019C18.4638 23.0332 18.5576 24.436 18.9195 25.1339C19.2121 25.6977 19.6906 27.2269 19.769 25.3561C19.7889 24.8759 19.518 24.7926 19.3805 24.2099C19.2426 23.6271 19.5292 23.2299 19.6776 23.0563C20.2429 22.3941 19.6402 20.9692 19.238 20.9486Z" fill="#C9ECD2"/>
<path fill-rule="evenodd" clip-rule="evenodd" d="M37.7048 25.2402C37.4063 25.8013 36.9124 27.3252 36.8533 25.4537C36.8382 24.9739 37.1095 24.893 37.2533 24.312C37.3968 23.7307 37.1144 23.3299 36.9677 23.1549C36.4095 22.4875 37.0269 21.0682 37.4294 21.0521C37.849 21.0346 38.0506 22.0804 38.1164 22.6124C38.1822 23.1444 38.0737 24.5462 37.7048 25.2402ZM36.5855 21.7728C36.5834 21.7798 36.582 21.7868 36.5796 21.7938C36.3801 22.4672 36.2516 23.331 36.1897 24.2767C36.1092 25.5164 35.9174 26.4372 35.9314 27.0158C35.9419 27.4655 36.077 27.7091 36.4837 27.7357C37.4147 27.7966 37.8172 26.1222 38.4699 24.2721C39.0859 22.5263 38.7429 20.6587 37.9204 20.4018C37.8711 20.3864 37.8207 20.3749 37.7682 20.3717C37.2411 20.3367 36.8505 20.8887 36.5855 21.7728Z" fill="white"/>
<path fill-rule="evenodd" clip-rule="evenodd" d="M37.4287 21.052C37.0265 21.0684 36.4088 22.4877 36.9677 23.1555C37.1137 23.3305 37.3968 23.7309 37.253 24.3122C37.1095 24.8932 36.8375 24.9737 36.8526 25.4539C36.9121 27.3254 37.4059 25.8015 37.7041 25.2404C38.0737 24.5464 38.1815 23.145 38.1157 22.6126C38.0503 22.0806 37.8487 21.0345 37.4287 21.052ZM35.4211 36.9871C29.3171 37.7911 22.9789 33.2369 21.8726 29.6557L21.8761 29.662L21.8768 29.6637L21.8778 29.6658L21.8789 29.6672L21.8796 29.669L21.8803 29.6707L21.8813 29.6728L21.8824 29.6746L21.8834 29.6763L21.8841 29.6777L21.8852 29.6795L21.8862 29.6812L21.8873 29.683L21.888 29.6851L21.889 29.6868L21.8897 29.6886L21.8908 29.69L21.8915 29.6921L21.8925 29.6938L21.8932 29.6956L21.8943 29.6973L21.8953 29.6994L21.8964 29.7008L21.8974 29.7026L21.9317 29.768L21.9328 29.7694L21.9335 29.7715L21.9345 29.7733L21.9352 29.775L21.9394 29.782L21.9405 29.7841L21.9415 29.7859L21.9422 29.7876L21.9433 29.7894L21.945 29.7929L21.9461 29.795L21.9478 29.7985L21.9489 29.8002L21.9499 29.802L21.9506 29.8037L21.9517 29.8055L21.9524 29.8072L21.9534 29.8086L21.9545 29.8104L21.9555 29.8121L21.9562 29.8142L21.9573 29.816L21.9583 29.8177L21.9594 29.8195L21.9601 29.8212L21.9611 29.823L21.9622 29.8247L21.9629 29.8265L21.9639 29.8286L21.965 29.8296L21.966 29.8317L21.9664 29.8335L21.9954 29.886L21.9965 29.8877L21.9993 29.8933L22 29.8947L22.0052 29.9049L22.0063 29.9063L22.0073 29.908L22.0084 29.9098L22.0094 29.9115L22.0101 29.9133L22.0171 29.9252L22.0178 29.9273L22.0189 29.9287L22.0199 29.9304L22.0203 29.9325L22.0213 29.9339L22.0224 29.9357L22.0234 29.9374L22.0245 29.9392L22.0255 29.9409L22.0262 29.9427L22.0273 29.9444L22.0283 29.9462L22.0294 29.9479L22.0304 29.9497L22.0315 29.9514L22.0318 29.9528L22.0329 29.9549L22.0588 30.0015L22.0598 30.0032L22.0609 30.0046L22.0616 30.0067L22.0626 30.0081L22.0637 30.0099L22.0644 30.012L22.0654 30.0137L22.0665 30.0148L22.0707 30.0228L22.0717 30.0246L22.0728 30.026L22.0738 30.0281L22.0745 30.0295L22.0756 30.0312L22.0763 30.0333L22.0773 30.0351L22.0787 30.0365L22.0794 30.0382L22.0808 30.0403L22.0815 30.0421L22.0836 30.0456L22.0847 30.047L22.0854 30.0491L22.0864 30.0505L22.0875 30.0526L22.0885 30.0543L22.0892 30.0561L22.0903 30.0578L22.0913 30.0596L22.0924 30.0613L22.0934 30.0631L22.0955 30.0666L22.0962 30.0683L22.1302 30.1278L22.1312 30.1296L22.1323 30.1313L22.1333 30.1331L22.134 30.1345L22.1375 30.1401L22.1382 30.1422L22.1393 30.1436L22.1403 30.1453L22.1424 30.1488L22.1435 30.1502L22.1554 30.1712L22.1561 30.1726L22.1582 30.1761L22.1592 30.1779L22.1603 30.1796L22.161 30.1814L22.162 30.1831L22.1631 30.1849L22.1641 30.187L22.1652 30.188L22.1662 30.1901L22.1673 30.1919L22.1683 30.1936L22.169 30.195L22.1704 30.1971L22.1711 30.1989L22.1981 30.2444L22.1991 30.2465L22.2002 30.2482L22.2012 30.25L22.2082 30.2622L22.2093 30.264L22.2103 30.2654L22.2114 30.2675L22.2124 30.2689L22.2135 30.2706L22.2142 30.2724L22.2149 30.2741L22.2159 30.2755L22.217 30.2769L22.218 30.2787L22.2191 30.2804L22.2201 30.2822L22.2212 30.2836L22.2219 30.2857L22.2229 30.2867L22.224 30.2888L22.225 30.2902L22.2257 30.292L22.2268 30.2937L22.2275 30.2951L22.2285 30.2969L22.2296 30.2986L22.2306 30.3L22.2317 30.3018L22.2677 30.3623L22.2688 30.3641L22.2695 30.3658L22.2705 30.3672L22.2765 30.377L22.2775 30.3788L22.2786 30.3805L22.2796 30.3819L22.2803 30.3833L22.2814 30.3854L22.2824 30.3868L22.2835 30.3886L22.2845 30.3903L22.2856 30.3921L22.2866 30.3938L22.2877 30.3952L22.2884 30.397L22.2898 30.3987L22.2905 30.4005L22.2915 30.4019L22.2926 30.404L22.2936 30.4054L22.2947 30.4068L22.2957 30.4089L22.2968 30.4103L22.2978 30.412L22.2985 30.4141L22.2999 30.4155L22.3006 30.4169L22.3017 30.4187L22.3024 30.4204L22.3038 30.4222L22.3048 30.4239C22.3153 30.4414 22.3258 30.4593 22.3374 30.4771L22.3384 30.4785L22.3395 30.4803L22.3405 30.482L22.3412 30.4834L22.3458 30.4908L22.3465 30.4922L22.3479 30.4939L22.3489 30.4953L22.35 30.4974L22.3507 30.4988L22.3531 30.5023L22.3542 30.5037L22.3643 30.5202L22.3654 30.5219L22.3671 30.5254L22.3682 30.5268L22.3692 30.5282L22.3703 30.53L22.3713 30.5317L22.3724 30.5331L22.3734 30.5352L22.3745 30.5363L22.3755 30.5384L22.3762 30.5398L22.407 30.5888L22.4081 30.5902L22.4091 30.5923L22.4098 30.5937L22.4109 30.5954L22.4207 30.6108L22.4217 30.6122L22.4224 30.6136L22.4235 30.6154L22.4245 30.6168L22.4256 30.6185L22.4266 30.6199L22.4273 30.6217L22.4294 30.6245L22.4305 30.6259L22.4312 30.6276L22.4322 30.629L22.4333 30.6308L22.4343 30.6322L22.4364 30.635L22.4375 30.6367L22.4382 30.6381L22.4392 30.6399L22.4403 30.6413L22.4413 30.643L22.442 30.6441L22.4431 30.6458L22.4438 30.6472L22.4448 30.649L22.4459 30.6504L22.4469 30.6521L22.448 30.6535L22.449 30.6549L22.4497 30.6563L22.4777 30.7004L22.4791 30.7022L22.4802 30.7036L22.4812 30.7053L22.4819 30.7067L22.483 30.7081L22.4938 30.7249L22.4949 30.7263L22.4959 30.7277L22.4966 30.7295L22.4977 30.7305L22.4984 30.7323L22.4994 30.7337L22.5005 30.7354L22.5015 30.7368L22.5026 30.7382L22.5036 30.74L22.5043 30.7414L22.5054 30.7428L22.5064 30.7438L22.5071 30.7456L22.5085 30.747L22.5092 30.7487L22.5103 30.7501L22.5113 30.7519L22.5124 30.7529L22.5131 30.7543L22.5141 30.7561L22.5152 30.7575L22.5162 30.7592L22.5173 30.7603L22.5176 30.762L22.5187 30.7634L22.5197 30.7648L22.5208 30.7662L22.5218 30.768L22.5225 30.7694L22.5236 30.7708L22.5505 30.8121L22.5516 30.8135L22.5526 30.8152L22.5537 30.8166L22.5547 30.818L22.5554 30.8194L22.5673 30.8369L22.5684 30.8387L22.5694 30.8397L22.5705 30.8415L22.5715 30.8425L22.5722 30.8443L22.5733 30.8457L22.5743 30.8474L22.575 30.8488L22.5764 30.8502L22.5771 30.852L22.5785 30.853L22.5792 30.8548L22.5803 30.8562L22.5813 30.8579L22.5824 30.8593L22.5831 30.8607L22.5841 30.8621L22.5852 30.8635L22.5859 30.8649L22.5873 30.8667L22.5883 30.8681L22.589 30.8698L22.5901 30.8712L22.5911 30.8726L22.5922 30.874L22.5932 30.8754L22.5939 30.8772L22.595 30.8786L22.596 30.8803L22.5971 30.8817L22.6251 30.923L22.6258 30.9248L22.6268 30.9262L22.6279 30.9276L22.6289 30.9293L22.63 30.9304L22.631 30.9321L22.6387 30.9433L22.6398 30.9451L22.6412 30.9468L22.6422 30.9482L22.6429 30.9496L22.6443 30.9514L22.6454 30.9528L22.6464 30.9545L22.6471 30.9559L22.6482 30.9577L22.6492 30.9587L22.6503 30.9605L22.6524 30.9636L22.6534 30.965L22.6545 30.9668L22.6555 30.9682L22.6569 30.9699L22.658 30.971L22.6587 30.9731L22.6597 30.9741L22.6608 30.9762L22.6618 30.9776L22.6632 30.979L22.6643 30.9804L22.6653 30.9822L22.6664 30.9836L22.6674 30.9853L22.6685 30.9867L22.6695 30.9881L22.6702 30.9899L22.6713 30.9913L22.701 31.0343L22.7021 31.0357L22.7031 31.0371L22.7042 31.0389L22.7052 31.0403L22.7063 31.042L22.7126 31.0508L22.7136 31.0525L22.7147 31.0543L22.7157 31.0557L22.7171 31.0571L22.7182 31.0585L22.7192 31.0602L22.7203 31.0616L22.7213 31.0634L22.7224 31.0648L22.7234 31.0665L22.7245 31.0676L22.7255 31.0693L22.7266 31.0707L22.728 31.0725L22.729 31.0742L22.7301 31.076L22.7311 31.0774L22.7325 31.0788L22.7332 31.0802L22.7343 31.0819L22.7353 31.0833L22.7364 31.0851L22.7374 31.0865L22.7385 31.0882L22.7395 31.0893L22.7409 31.091L22.742 31.0924L22.7798 31.1463L22.7808 31.1481L22.7822 31.1498L22.7899 31.1607L22.791 31.1624L22.792 31.1635L22.7931 31.1652L22.7945 31.1666L22.7955 31.168L22.7962 31.1694L22.7973 31.1712L22.7983 31.1726L22.8018 31.1771L22.8029 31.1785L22.8039 31.1799L22.805 31.1817L22.8123 31.1922L22.8134 31.1939L22.8144 31.195L22.8155 31.1967L22.8165 31.1981L22.8179 31.1995L22.819 31.2009L22.82 31.2023L22.8211 31.2041L22.8221 31.2055L22.8232 31.2072L22.8242 31.2083L22.8253 31.21L22.8263 31.2114L22.8533 31.2485L22.8543 31.2499L22.8554 31.2513L22.8564 31.2531L22.8575 31.2545L22.8585 31.2562L22.8676 31.2681L22.8687 31.2699L22.8701 31.2713L22.8708 31.2727L22.8722 31.2741L22.8732 31.2755L22.8739 31.2772L22.875 31.2786L22.889 31.2972L22.89 31.2989L22.8911 31.3L22.8921 31.3017L22.8935 31.3031L22.8953 31.3059L22.8963 31.3073L22.8974 31.3087L22.8984 31.3101L22.8995 31.3119L22.9005 31.3129L22.9016 31.3147L22.9026 31.3161L22.904 31.3171L22.9051 31.3189L22.9324 31.3563L22.9338 31.3577L22.9348 31.3591L22.9359 31.3605L22.9481 31.377L22.9492 31.3784L22.9502 31.3794L22.9513 31.3812L22.952 31.3822L22.953 31.3833L22.9541 31.385L22.9551 31.3864L22.9562 31.3875L22.9572 31.3892L22.9583 31.3906L22.9593 31.3917L22.9604 31.3927L22.9614 31.3945L22.9621 31.3955L22.9635 31.3973L22.9653 31.3997L22.9663 31.4015L22.9674 31.4025L22.9684 31.4036L22.9695 31.4053L22.9705 31.4067L22.9712 31.4078L22.9723 31.4092L22.9733 31.4109L22.9744 31.412L22.9754 31.4134L22.9765 31.4148L22.9775 31.4158L22.9786 31.4172L22.9796 31.419L22.9817 31.4214L22.9824 31.4232L22.9835 31.4242L23.0094 31.4578L23.0104 31.4592L23.0115 31.4606L23.0125 31.4617L23.0132 31.4631L23.0283 31.483L23.0297 31.4841L23.0307 31.4855L23.0318 31.4872L23.0328 31.4883L23.0339 31.4897L23.0349 31.4911L23.036 31.4921L23.0367 31.4935L23.0377 31.4949L23.0388 31.4963L23.0398 31.4977L23.0412 31.4991L23.0423 31.5005L23.0433 31.5016L23.0444 31.503L23.0454 31.5044L23.0465 31.5054L23.0472 31.5072L23.0482 31.5086L23.0493 31.51L23.0503 31.5114L23.0514 31.5124L23.0524 31.5138L23.0535 31.5149L23.0545 31.5166L23.0556 31.5177L23.0566 31.5191C23.0685 31.5348 23.0804 31.5506 23.093 31.566L23.0941 31.567L23.0951 31.5688L23.1028 31.5782L23.1039 31.58L23.1053 31.581L23.1063 31.5828L23.1074 31.5838L23.1084 31.5856L23.1095 31.587L23.1116 31.5898L23.113 31.5912L23.1273 31.6094L23.1287 31.6108L23.1298 31.6125L23.1308 31.6136L23.1322 31.6153L23.1333 31.6167L23.134 31.6181L23.1354 31.6195L23.1364 31.6206L23.1375 31.6223L23.1385 31.6237L23.1399 31.6251L23.141 31.6265L23.1424 31.6279L23.1434 31.6293C23.1525 31.6412 23.162 31.6531 23.1714 31.6643L23.1725 31.6657L23.1739 31.6675L23.1749 31.6689L23.1872 31.6836L23.1879 31.685L23.1889 31.686L23.19 31.6874L23.191 31.6888L23.1921 31.6902L23.1935 31.6916L23.1945 31.693L23.1952 31.6941L23.1963 31.6955L23.1977 31.6965L23.1984 31.6979L23.1994 31.6993L23.2008 31.7007L23.2019 31.7021L23.2026 31.7032L23.204 31.7049L23.2061 31.707L23.2071 31.7084L23.2085 31.7098L23.2092 31.7112L23.2103 31.7126L23.2113 31.7137L23.2124 31.7154L23.2134 31.7165L23.2145 31.7179L23.2155 31.7189L23.2169 31.7203L23.218 31.7217L23.219 31.7231L23.2197 31.7245L23.2208 31.7256L23.2218 31.727L23.2232 31.7284L23.2253 31.7308L23.2264 31.7322L23.2274 31.7336L23.2519 31.7634L23.253 31.7648L23.254 31.7662L23.2554 31.7672L23.2698 31.7847L23.2978 31.8183L23.2988 31.8194L23.2999 31.8211L23.3006 31.8222L23.302 31.8236L23.303 31.825L23.3041 31.8264L23.3055 31.8274L23.3062 31.8285L23.3072 31.8299L23.3342 31.8614L23.3352 31.8628L23.3363 31.8642L23.3373 31.8656L23.3384 31.867L23.3506 31.881L23.352 31.8824L23.3531 31.8838L23.3541 31.8852L23.3555 31.8862L23.3562 31.8876L23.3573 31.889L23.3583 31.8904L23.3594 31.8915L23.3604 31.8925L23.3615 31.8939L23.3755 31.9104L23.3765 31.9118L23.3779 31.9128L23.379 31.9139L23.38 31.9153L23.3814 31.9167L23.3821 31.9177L23.3832 31.9191L23.3842 31.9205L23.3853 31.9219L23.3863 31.923L23.3874 31.924L23.3884 31.9251L23.3898 31.9265L23.4154 31.9569L23.4168 31.9576L23.4178 31.959L23.4189 31.9604L23.4199 31.9618L23.4385 31.9828L23.4395 31.9842L23.4406 31.9853L23.4416 31.9863L23.4427 31.9877L23.4437 31.9891L23.4458 31.9912L23.4465 31.9923L23.4486 31.9944L23.4497 31.9958L23.4507 31.9972L23.4518 31.9982L23.4528 31.9993L23.4539 32.0003L23.4549 32.0014L23.456 32.0024L23.4577 32.0049L23.4591 32.0063L23.4598 32.0073L23.4609 32.0084L23.4619 32.0098L23.463 32.0108L23.464 32.0119L23.4651 32.0133L23.4665 32.0143L23.4672 32.0157L23.4682 32.0168L23.4693 32.0178L23.4703 32.0189L23.4714 32.0203L23.4724 32.0213C23.4819 32.0325 23.4917 32.0437 23.5018 32.0546L23.5029 32.0556L23.5039 32.057L23.5228 32.078L23.5235 32.0791L23.5249 32.0801L23.5256 32.0812L23.527 32.0826L23.5281 32.0836L23.5291 32.085L23.5302 32.0861L23.5312 32.0871L23.5323 32.0878L23.533 32.0892L23.534 32.0903L23.5351 32.0917L23.5361 32.0931L23.5375 32.0941L23.5382 32.0952L23.5393 32.0962L23.5414 32.0983L23.5424 32.0994L23.5435 32.1008L23.5445 32.1022L23.5452 32.1032L23.5463 32.1043L23.5473 32.1053L23.5484 32.1064L23.5494 32.1078L23.5505 32.1088L23.5515 32.1099L23.5529 32.1109L23.5536 32.1123L23.5547 32.1134L23.5554 32.1144L23.5564 32.1155L23.5578 32.1169L23.5589 32.1179L23.5599 32.1193L23.5869 32.1487L23.5879 32.1498L23.589 32.1508L23.6082 32.1718L23.6089 32.1729L23.6103 32.1739L23.6124 32.176L23.6135 32.1771L23.6145 32.1781L23.6152 32.1792L23.6163 32.1806L23.6173 32.1816L23.6184 32.1827L23.6194 32.1837L23.6205 32.1848L23.6215 32.1858L23.6222 32.1869L23.6233 32.1879L23.6243 32.1893L23.6254 32.1904L23.6264 32.1914L23.6275 32.1925L23.6285 32.1939L23.6296 32.1949L23.6313 32.197L23.6324 32.1977L23.6334 32.1988L23.6345 32.1998L23.6355 32.2012L23.6366 32.2023L23.6376 32.2033L23.6387 32.2047L23.6397 32.2058L23.6408 32.2065L23.6415 32.2079L23.6425 32.2089L23.6436 32.21L23.6695 32.2376L23.6705 32.2387L23.6723 32.2404L23.6733 32.2415L23.6961 32.2656L23.6971 32.2667L23.6982 32.2677L23.6992 32.2688L23.7003 32.2698L23.7013 32.2712L23.7024 32.2719L23.7034 32.273L23.7045 32.274L23.7055 32.2754L23.7073 32.2772L23.7083 32.2782L23.7094 32.2793L23.7104 32.2803L23.7115 32.2817L23.7125 32.2824L23.7132 32.2835L23.7143 32.2845L23.7153 32.2859L23.7164 32.287L23.7174 32.288L23.7185 32.2891L23.7195 32.2901L23.7202 32.2915L23.7216 32.2926L23.7237 32.2943L23.7244 32.2954L23.7258 32.2968L23.7265 32.2978L23.7276 32.2985L23.7286 32.2996L23.7293 32.3006L23.7307 32.302L23.7314 32.3031L23.7328 32.3041L23.7563 32.3286L23.7573 32.3293L23.7584 32.3304L23.7594 32.3314L23.7605 32.3325L23.7615 32.3339L23.7776 32.3503L23.7787 32.3514L23.7797 32.3528L23.7811 32.3538L23.7818 32.3549L23.7832 32.3559L23.7843 32.357L23.7853 32.3584L23.7864 32.3594L23.7909 32.364L23.7923 32.365L23.7944 32.3675L23.7955 32.3685L23.799 32.372L23.7997 32.3731L23.8042 32.3776L23.8053 32.3787L23.8074 32.3811L23.8088 32.3822L23.8098 32.3832L23.8112 32.3843L23.8123 32.3853L23.8133 32.3867L23.814 32.3878L23.8154 32.3888L23.8165 32.3902L23.8186 32.3923L23.82 32.3934L23.8459 32.4193L23.8466 32.4207L23.8476 32.4217L23.849 32.4228L23.8655 32.4392L23.8669 32.4403L23.8676 32.4413L23.8686 32.4424L23.8697 32.4438L23.9001 32.4739L23.9012 32.4749L23.9022 32.476L23.9033 32.477L23.9043 32.4777L23.9057 32.4788L23.9068 32.4798L23.9078 32.4809L23.9089 32.4823L23.9103 32.4833L23.911 32.4844L23.912 32.4854L23.9131 32.4865L23.9316 32.5043L23.9327 32.5057L23.9337 32.5068L23.9348 32.5078L23.96 32.532L23.961 32.5327L23.9621 32.5337L23.9631 32.5348L23.9642 32.5358L23.9649 32.5369L23.9659 32.5376L23.967 32.5386L23.968 32.5397L23.9691 32.5407L23.9701 32.5418L23.9712 32.5428L23.9722 32.5435L23.9733 32.5442L23.9743 32.5453L23.9754 32.5463L23.9761 32.5474L23.9771 32.5484L23.9782 32.5495L23.9792 32.5505L23.9803 32.5512L23.981 32.5523L23.9824 32.5533L23.9834 32.5544L23.9845 32.5554L23.9855 32.5561L23.9862 32.5572L23.9873 32.5582L23.9883 32.5593L23.9894 32.5603L23.9904 32.5614L23.9915 32.5621L23.9925 32.5631L24.0226 32.5918L24.0237 32.5929L24.0247 32.5939L24.0457 32.6135L24.0468 32.6146L24.0478 32.6156L24.0489 32.6167L24.0499 32.6177L24.0513 32.6188L24.0531 32.6205L24.0541 32.6216L24.0552 32.6226L24.0636 32.6307L24.0646 32.6317L24.0657 32.6328L24.0671 32.6338L24.0681 32.6345L24.0776 32.6436L24.0786 32.6447L24.0797 32.6457L24.0811 32.6468L24.0821 32.6478L24.0832 32.6485L24.0839 32.6496L24.0849 32.6506L24.086 32.6513L24.0874 32.6524L24.0884 32.6534L24.0895 32.6545L24.0905 32.6555L24.0912 32.6566L24.1094 32.6734L24.1108 32.6744L24.1119 32.6755L24.1129 32.6762L24.114 32.6772L24.1367 32.6982L24.1378 32.6989L24.1388 32.7L24.1399 32.701L24.1409 32.7017L24.142 32.7028L24.143 32.7038L24.1441 32.7049L24.1455 32.7059L24.1465 32.7066L24.1472 32.7077L24.1486 32.7084L24.1493 32.7094L24.1504 32.7105L24.1514 32.7115L24.1525 32.7126L24.1539 32.7133L24.1549 32.7143L24.156 32.7154L24.157 32.7164L24.1581 32.7171L24.1591 32.7182L24.1602 32.7192L24.1612 32.7203L24.1623 32.7213L24.1633 32.7224L24.1644 32.7231L24.1654 32.7241L24.1668 32.7252L24.1675 32.7262L24.1686 32.7273L24.17 32.728L24.1717 32.7297L24.1728 32.7308L24.1742 32.7318L24.1752 32.7325L24.2036 32.7588L24.205 32.7598L24.2253 32.7777L24.2263 32.7784L24.2274 32.7794L24.2284 32.7805L24.2298 32.7815L24.2309 32.7822L24.2333 32.7843L24.2344 32.7854L24.2603 32.8085L24.2613 32.8095L24.2624 32.8102L24.2659 32.813L24.2669 32.8141L24.268 32.8148L24.269 32.8158L24.2701 32.8169L24.2715 32.8179L24.2725 32.819L24.2907 32.8354L24.2918 32.8358L24.2932 32.8368L24.2942 32.8379L24.2953 32.8389L24.3215 32.861L24.3233 32.8627L24.3243 32.8638L24.3254 32.8645L24.3264 32.8655L24.3275 32.8662L24.3285 32.8673L24.3306 32.8687L24.3313 32.8697L24.3324 32.8704L24.3334 32.8715L24.3355 32.8732L24.3366 32.8739L24.3373 32.875L24.3408 32.8774L24.3415 32.8785L24.3425 32.8792L24.3467 32.8827L24.3485 32.8844L24.352 32.8872L24.3537 32.889L24.3558 32.8904L24.3565 32.8914L24.3579 32.8921L24.3586 32.8932L24.36 32.8939L24.3621 32.8956L24.3642 32.8974L24.3824 32.9128L24.3831 32.9138L24.3845 32.9145L24.3863 32.9163L24.4178 32.9422L24.4192 32.9436L24.4202 32.9443L24.422 32.9457L24.423 32.9467L24.4241 32.9474L24.4251 32.9481L24.4307 32.953L24.4318 32.9537L24.4335 32.9555L24.4346 32.9562L24.4423 32.9625L24.4433 32.9635L24.4468 32.9663L24.4482 32.967L24.4493 32.9677L24.45 32.9688L24.451 32.9698L24.4528 32.9712L24.4538 32.9719L24.4556 32.9737L24.4577 32.9754L24.4587 32.9761L24.4598 32.9768L24.4769 32.9912L24.478 32.9915L24.479 32.9926L24.5014 33.0104L24.5028 33.0115L24.5039 33.0118L24.5046 33.0132L24.506 33.0139L24.507 33.015L24.5081 33.0157L24.5095 33.0171L24.5109 33.0181L24.5119 33.0188L24.513 33.0195L24.514 33.0206L24.5151 33.0209L24.5158 33.022L24.5175 33.0237L24.5186 33.0244L24.5196 33.0248L24.5203 33.0258L24.5214 33.0265L24.5224 33.0276L24.5266 33.0307L24.5294 33.0328L24.5305 33.0335L24.5322 33.0353L24.5333 33.036L24.5343 33.037L24.5354 33.0377L24.5364 33.0384L24.5382 33.0398L24.5389 33.0409L24.5399 33.0416L24.541 33.0419L24.542 33.043L24.5431 33.0437L24.5441 33.0444L24.5459 33.0461L24.5469 33.0468L24.548 33.0475L24.5494 33.0489L24.5693 33.0643L24.57 33.0654L24.5711 33.0661L24.5721 33.0668L24.5732 33.0675L24.5742 33.0678L24.5749 33.0689L24.577 33.0706L24.5924 33.0825L24.5945 33.0839L24.5959 33.0853L24.597 33.0857L24.5977 33.0867L24.5987 33.0874L24.5998 33.0878L24.6015 33.0892L24.6022 33.0902L24.6033 33.0909L24.605 33.0923L24.6061 33.093L24.6071 33.0937L24.6082 33.0948L24.6092 33.0955L24.6103 33.0962L24.6113 33.0969L24.6124 33.0976L24.6141 33.099L24.6152 33.1L24.6162 33.1007L24.6183 33.1021L24.619 33.1032L24.6201 33.1039L24.6211 33.1046L24.6232 33.1063L24.626 33.1084L24.6271 33.1091L24.6281 33.1098L24.6292 33.1105L24.6302 33.1116L24.6313 33.1123L24.6323 33.1133L24.6334 33.114L24.6351 33.1154L24.6372 33.1172L24.6393 33.1182L24.64 33.1193L24.6411 33.12L24.6421 33.1207L24.6432 33.1214L24.6442 33.1224L24.6453 33.1231L24.6652 33.1385L24.6663 33.1392L24.6673 33.1396L24.6943 33.1606L24.6964 33.1616L24.6974 33.1623L24.6985 33.163L24.6995 33.1641L24.7013 33.1655L24.7023 33.1662L24.7034 33.1672L24.7048 33.1679L24.7058 33.169L24.7069 33.1693L24.7184 33.1781L24.7195 33.1788L24.7275 33.1851L24.7289 33.1858L24.73 33.1868L24.731 33.1875L24.7321 33.1886L24.7331 33.1893L24.7342 33.19L24.7352 33.1907L24.7363 33.1917L24.7373 33.1924L24.7384 33.1931L24.7394 33.1938L24.7405 33.1945L24.7415 33.1952L24.7426 33.1959L24.7583 33.2078L24.7594 33.2085L24.7604 33.2092L24.7615 33.2099L24.7625 33.211L24.7643 33.212L24.7793 33.2229L24.78 33.2239L24.7814 33.2243L24.7825 33.2253L24.7839 33.2264L24.7849 33.2267L24.786 33.2274L24.787 33.2281L24.7884 33.2292L24.7895 33.2295L24.7909 33.2313L24.7919 33.232L24.794 33.2334L24.7951 33.2344L24.7961 33.2351L24.7982 33.2365L24.8024 33.2393L24.8035 33.2404L24.8045 33.2411L24.8129 33.2474L24.814 33.2481L24.8203 33.2526L24.8213 33.2533L24.8224 33.254L24.8234 33.2547L24.8245 33.2558L24.8255 33.2565L24.8266 33.2572L24.828 33.2579L24.829 33.2589L24.8308 33.26L24.8322 33.261L24.8343 33.2624L24.8353 33.2628L24.8364 33.2638L24.8574 33.2792L24.8847 33.2978L24.8857 33.2985L24.8868 33.2995L24.8882 33.3002L24.8892 33.3009L24.8903 33.3016L24.8913 33.3027L24.8924 33.303L24.9284 33.3282L24.9295 33.3289L24.9305 33.3296L24.9316 33.3303L24.9326 33.331L24.9337 33.3317L24.9347 33.3324L24.9358 33.3331L24.9372 33.3342L24.9484 33.3419L24.9494 33.3426L24.9505 33.3433L24.9519 33.3443L24.9529 33.345L24.954 33.3457L24.9564 33.3471L24.9697 33.3566L24.9729 33.358L24.9743 33.359L24.9753 33.3597L24.9764 33.3601L24.9774 33.3611L24.9785 33.3618L24.9799 33.3625L24.9809 33.3636L24.982 33.3639L24.983 33.365L24.9841 33.3657L24.9851 33.3664L24.9862 33.3671L24.9872 33.3678L24.9883 33.3681L24.9893 33.3688L24.9904 33.3699L24.9914 33.3706L24.9932 33.372L24.9942 33.3727L24.9953 33.373L24.9963 33.3737L24.9974 33.3748L24.9995 33.3758L25.0005 33.3769L25.0044 33.3793L25.0054 33.38L25.0128 33.3849L25.0138 33.3856L25.0149 33.3863L25.0194 33.3891L25.0212 33.3902L25.0222 33.3912L25.0233 33.3919L25.0243 33.3923L25.0254 33.3933L25.0264 33.394L25.0275 33.3944L25.0285 33.3954L25.0303 33.3968L25.0313 33.3972L25.0327 33.3982L25.0467 33.4073L25.0481 33.4084L25.0492 33.4091L25.0502 33.4094L25.0513 33.4101L25.0523 33.4108L25.0534 33.4115L25.0656 33.4196L25.0667 33.4199L25.0684 33.4213L25.0695 33.4217L25.0705 33.422L25.0719 33.4231L25.0733 33.4241L25.0744 33.4248L25.0754 33.4252L25.0765 33.4262L25.0775 33.4269L25.0789 33.428L25.08 33.4283L25.081 33.4294L25.0831 33.4308L25.0852 33.4318L25.0863 33.4329L25.1258 33.4584L25.1272 33.4588L25.1283 33.4595L25.1293 33.4605L25.1304 33.4612L25.1314 33.4616L25.1325 33.4626L25.1335 33.463L25.1426 33.4686L25.1437 33.4696L25.1447 33.47L25.1458 33.4707L25.1468 33.4714L25.1482 33.4721L25.1699 33.4857L25.171 33.4864L25.1724 33.4868L25.1734 33.4871L25.1745 33.4882L25.1755 33.4889L25.1769 33.4899L25.1783 33.4903L25.1794 33.4913L25.1804 33.492L25.1815 33.4924L25.1832 33.4938L25.1843 33.4941L25.185 33.4952L25.1867 33.4962L25.1878 33.4969L25.1888 33.4973L25.1899 33.498L25.1909 33.4983L25.192 33.499L25.1937 33.5001L25.1948 33.5011L25.2235 33.5186L25.2245 33.5193L25.2263 33.5204L25.2273 33.5207L25.2284 33.5214L25.2301 33.5225L25.2312 33.5232L25.2417 33.5302H25.2431L25.2441 33.5309L25.2452 33.5316L25.2462 33.5319L25.2767 33.5505L25.2781 33.5512L25.2791 33.5522H25.2805L25.2816 33.5529L25.283 33.554L25.284 33.5543L25.2858 33.5557L25.2868 33.5561L25.2886 33.5575L25.2903 33.5585L25.2914 33.5592L25.2924 33.5596L25.2935 33.5603L25.2959 33.562H25.297L25.2987 33.5634L25.2998 33.5638L25.3015 33.5648L25.3033 33.5662L25.3043 33.5666L25.3061 33.5676L25.3071 33.5683L25.3089 33.5694L25.3173 33.5743L25.3201 33.5757L25.3218 33.5767L25.3229 33.5774L25.3246 33.5785L25.3257 33.5792L25.3274 33.5802L25.3285 33.5806L25.3404 33.5876L25.3414 33.5883L25.3432 33.5893L25.3442 33.59L25.3694 33.6044H25.3705L25.3722 33.6061L25.3736 33.6065L25.375 33.6072L25.3764 33.6082L25.3775 33.6089L25.3792 33.6096L25.3803 33.6103L25.3813 33.611L25.3824 33.6114L25.3845 33.6124L25.3855 33.6131L25.3873 33.6142L25.3883 33.6149L25.3894 33.6152L25.3904 33.6159L25.3918 33.617L25.3936 33.6177L25.3953 33.6187L25.3964 33.6194L25.3974 33.6198L25.3992 33.6208L25.4009 33.6219L25.4023 33.6229L25.4044 33.624L25.4062 33.625L25.4079 33.6261L25.409 33.6264L25.4142 33.6296L25.4156 33.6306L25.4167 33.631L25.4177 33.6313L25.4195 33.6324L25.4205 33.6327L25.4223 33.6338L25.4233 33.6345L25.4247 33.6355L25.4265 33.6366L25.4275 33.6369L25.4293 33.638L25.4303 33.6387L25.4321 33.639L25.4391 33.6432L25.4401 33.6439L25.4419 33.6446L25.4433 33.6457L25.4695 33.66L25.4716 33.6611L25.4737 33.6621L25.4751 33.6628L25.4765 33.6635L25.4783 33.6646L25.4793 33.6649L25.4807 33.6656L25.4821 33.6667L25.4835 33.667L25.4849 33.6681L25.487 33.6691L25.4884 33.6702L25.4895 33.6705L25.4905 33.6712L25.4923 33.6723L25.4944 33.673L25.4961 33.674L25.4979 33.6751L25.4989 33.6754L25.5007 33.6765L25.5024 33.6775L25.5035 33.6782L25.5045 33.6786L25.5063 33.6796L25.5073 33.6803L25.5084 33.6807L25.5094 33.6814L25.5108 33.6824L25.5126 33.6831L25.5136 33.6835L25.5147 33.6842L25.5164 33.6852L25.5175 33.6856L25.5185 33.6859L25.5203 33.687L25.522 33.688L25.5231 33.6884L25.5248 33.6894L25.5406 33.6978L25.5416 33.6985L25.5434 33.6996L25.5444 33.6999L25.5455 33.7006L25.5472 33.7017L25.5682 33.7122L25.5693 33.7129L25.5703 33.7136L25.5714 33.7139L25.5724 33.7143L25.5745 33.715L25.5752 33.716L25.5763 33.7164L25.5773 33.7171L25.5784 33.7174L25.5798 33.7181L25.5826 33.7195L25.584 33.7202L25.585 33.7209L25.5899 33.7234L25.591 33.7241L25.6218 33.7395L25.6228 33.7402L25.6239 33.7405L25.6249 33.7416L25.626 33.7419L25.627 33.7426L25.6284 33.743L25.6302 33.744L25.6312 33.7444L25.6435 33.7507L25.6445 33.751L25.6463 33.7521L25.6473 33.7528L25.6484 33.7531L25.669 33.7629L25.6718 33.7647L25.6732 33.7654L25.6743 33.7657L25.6753 33.7664L25.6764 33.7668L25.6778 33.7671L25.6788 33.7678L25.6802 33.7689L25.6813 33.7692H25.6823L25.6834 33.7699L25.6844 33.7706L25.7268 33.7913L25.7278 33.7916L25.7289 33.7923L25.7299 33.7927L25.731 33.7934L25.732 33.7937L25.7331 33.7944L25.7341 33.7948L25.7355 33.7955L25.7425 33.799L25.7443 33.8L25.746 33.8007L25.7705 33.8123H25.7719L25.773 33.813L25.7744 33.8137L25.7754 33.814L25.7768 33.8147L25.7779 33.8151L25.7793 33.8158L25.7803 33.8161L25.7814 33.8168L25.7824 33.8172L25.7842 33.8182L25.7852 33.8189H25.7863L25.7873 33.8196L25.7884 33.82L25.7894 33.8207L25.7905 33.821L25.7922 33.8221L25.7933 33.8224L25.7943 33.8228L25.7954 33.8235L25.7971 33.8242H25.7982L25.7992 33.8249L25.8003 33.8256L25.8013 33.8259L25.8223 33.8357L25.8234 33.8361L25.8262 33.8375L25.8272 33.8382L25.8283 33.8385L25.8293 33.8392L25.8304 33.8396L25.8325 33.8403L25.8335 33.841L25.8353 33.842L25.8454 33.8462L25.8465 33.8469L25.8479 33.8473L25.8493 33.848L25.8507 33.8487L25.8797 33.8616L25.8811 33.862L25.8825 33.8627L25.8836 33.8634L25.8853 33.8637L25.8874 33.8648L25.8885 33.8655L25.8899 33.8658L25.8913 33.8665L25.8923 33.8669L25.8934 33.8672L25.8951 33.8679L25.8969 33.8686L25.8979 33.8693L25.8993 33.87L25.9004 33.8707L25.9021 33.8714H25.9032L25.906 33.8728L25.907 33.8735L25.9287 33.883L25.9305 33.8837L25.9322 33.8844L25.9333 33.8851L25.935 33.8858L25.9368 33.8865L25.9385 33.8872L25.9396 33.8875L25.9406 33.8882L25.9476 33.891L25.9487 33.8914L25.9504 33.8921L25.9515 33.8924L25.9525 33.8931L25.9826 33.9054L25.9844 33.9064L25.9865 33.9071L25.9875 33.9075L25.99 33.9085L25.9914 33.9089L25.9924 33.9096L25.9935 33.9099L25.9949 33.9106L25.9963 33.911L25.998 33.9117L25.9994 33.912L26.0005 33.9127L26.0022 33.9134L26.0036 33.9141L26.0054 33.9145L26.0068 33.9152L26.0085 33.9162L26.0103 33.9166L26.0117 33.9173L26.0134 33.9183L26.0152 33.9187L26.0166 33.9194L26.018 33.9204L26.0197 33.9208L26.0215 33.9211L26.0229 33.9218L26.0246 33.9225L26.0264 33.9232L26.0295 33.9246L26.0309 33.925L26.0334 33.9264L26.0344 33.9267L26.0362 33.9271L26.0376 33.9281L26.039 33.9288L26.0407 33.9292L26.0425 33.9299L26.0502 33.933L26.0512 33.9337L26.053 33.9341L26.0544 33.9348L26.0554 33.9351L26.0915 33.9491L26.0925 33.9495L26.0946 33.9505L26.0964 33.9512L26.0981 33.9519L26.0999 33.9523L26.1013 33.953L26.1023 33.9533L26.1037 33.9537L26.1055 33.9544L26.1069 33.9554L26.1086 33.9558L26.1104 33.9565L26.1118 33.9568L26.1135 33.9575L26.1149 33.9582L26.1195 33.9603H26.1205L26.1223 33.9607L26.1443 33.9694L26.1461 33.9701L26.1475 33.9708L26.1489 33.9715L26.1503 33.9719L26.1538 33.9733L26.1555 33.974L26.1573 33.9747L26.2017 33.9908H26.2028L26.2038 33.9915L26.2056 33.9918L26.2073 33.9929H26.2084L26.2101 33.9932L26.2115 33.9943L26.2129 33.995L26.2143 33.9953H26.2154L26.2168 33.996L26.2185 33.9964L26.2199 33.9971L26.2213 33.9974L26.2224 33.9981L26.2234 33.9985H26.2245L26.2262 33.9992L26.2273 34.0002L26.2308 34.0009L26.2322 34.0016L26.2357 34.003L26.2406 34.0048L26.2444 34.0062L26.2458 34.0065L26.2472 34.0072L26.2483 34.0076H26.2497L26.2514 34.0083L26.2528 34.0086L26.257 34.0107H26.2581L26.2595 34.0114L26.2605 34.0118L26.2623 34.0121L26.2633 34.0125L26.3032 34.0261L26.3046 34.0268L26.3064 34.0275L26.3085 34.0279L26.3099 34.0286L26.3116 34.0289L26.3144 34.0296L26.3158 34.03L26.3172 34.0307L26.3183 34.031L26.32 34.0317L26.3214 34.0321L26.3228 34.0328L26.3242 34.0335H26.326L26.3277 34.0345L26.3295 34.0349L26.354 34.0433L26.3557 34.044L26.3575 34.0443L26.3589 34.045L26.3606 34.0454L26.3624 34.0457L26.3634 34.0464H26.3645L26.3655 34.0468L26.4124 34.0618L26.4142 34.0622L26.4159 34.0625L26.4173 34.0632H26.4184L26.4194 34.0636L26.4208 34.0643L26.4222 34.0646H26.4233L26.4247 34.0653L26.4264 34.0657L26.4275 34.0664L26.4285 34.0667L26.4303 34.0674H26.4317L26.4334 34.0678L26.4348 34.0685L26.4362 34.0688L26.4373 34.0692L26.4387 34.0695L26.4404 34.0702L26.4432 34.0713L26.4457 34.0723L26.4569 34.0755L26.4583 34.0758L26.4597 34.0765H26.4611L26.4625 34.0769L26.4635 34.0776L26.4691 34.0793H26.4705L26.5045 34.0895H26.5055L26.5083 34.0905H26.5094L26.5111 34.0912L26.5125 34.0916L26.5143 34.0919L26.5153 34.0926H26.5164L26.5178 34.093L26.5195 34.0937L26.522 34.094L26.523 34.0947L26.5248 34.0951L26.5265 34.0958L26.5283 34.0961H26.5293L26.5307 34.0968L26.5318 34.0972H26.5328L26.5346 34.0979L26.5363 34.0986L26.5657 34.107H26.5668L26.5685 34.1073L26.5703 34.108L26.5713 34.1084L26.5748 34.1094L26.5766 34.1101H26.578L26.6032 34.1168L26.6063 34.1175H26.6074L26.6084 34.1182L26.6095 34.1185H26.6116L26.613 34.1192L26.6147 34.1196L26.6168 34.1203L26.6189 34.1206L26.6207 34.1213L26.6217 34.1217L26.6235 34.1224L26.6252 34.1227H26.6263L26.6273 34.1234L26.6294 34.1238H26.6305L26.6315 34.1241L26.6333 34.1248L26.6725 34.135L26.6746 34.1353L26.6756 34.1357L26.6774 34.136L26.6784 34.1364L26.6795 34.1367L26.6812 34.1374H26.6823L26.6833 34.1378H26.6844L26.7285 34.1483L26.7295 34.1486L26.7334 34.149L26.7351 34.1497L26.7362 34.15H26.7379L26.7397 34.1507L26.7407 34.1511H26.7421L26.7435 34.1518L26.7453 34.1521L26.7467 34.1528H26.7484L26.7505 34.1532L26.7523 34.1539L26.7533 34.1542H26.7547L26.7568 34.1549L26.7593 34.1553L26.7607 34.156L26.7827 34.1609L26.7848 34.1612L26.7869 34.1619L26.7894 34.1623C26.8072 34.1668 26.8254 34.1703 26.8433 34.1742H26.8454L26.8464 34.1745H26.8475L26.8485 34.1752H26.8496L26.852 34.1756L26.8552 34.1763L26.8573 34.1766L26.8594 34.1773L26.8604 34.1777H26.8615L26.8625 34.1784H26.8643L26.8884 34.1833L26.8912 34.1836L26.8926 34.1843L26.8944 34.1847H26.8965L26.8975 34.1854L26.9612 34.1973H26.9633L26.9647 34.1976L26.9661 34.198H26.9672L26.9682 34.1987H26.9703L26.9735 34.199L26.9756 34.1997L26.9787 34.2001L26.9808 34.2008L26.9836 34.2011L26.9994 34.2039H27.0004L27.0032 34.2046L27.0043 34.205C27.0218 34.2085 27.0382 34.2109 27.0554 34.2134L27.0585 34.2137L27.0613 34.2141L27.0624 34.2144H27.0652L27.0662 34.2148L27.0673 34.2151H27.0704L27.0725 34.2158L27.0764 34.2162L27.0795 34.2169L27.0816 34.2172L27.1061 34.2214H27.1079L27.1107 34.2221L27.1142 34.2225C27.1499 34.2281 27.1849 34.233 27.2206 34.2368H27.2227L27.2237 34.2372H27.2251C27.2486 34.2407 27.2717 34.2428 27.2951 34.2456H27.2993L27.3039 34.2459L27.3102 34.2466L27.3133 34.247L27.3263 34.2484L27.3273 34.2487H27.3315C27.3672 34.2526 27.4033 34.2557 27.44 34.2582C27.4764 34.261 27.5135 34.2631 27.5503 34.2652C27.587 34.2669 27.6241 34.268 27.6605 34.2687C31.0433 34.3397 33.3704 32.6548 34.7795 30.0179C34.6822 31.1512 34.6525 32.2341 34.6602 33.2918C34.6619 33.5256 34.6714 34.6068 34.8261 35.7138C34.895 36.2056 35.1131 36.6252 35.4211 36.9871Z" fill="#C9ECD2"/>
<path fill-rule="evenodd" clip-rule="evenodd" d="M50.3169 43.9502C50.1111 43.7794 49.8899 43.6142 49.6526 43.4546C45.9857 40.9888 38.8236 39.1923 36.1444 37.5991C33.2586 46.4478 21.0951 44.5651 19.6069 37.457C16.4534 38.6169 8.02046 40.6077 4.81761 43.5298C4.80256 43.5435 4.78751 43.5578 4.77246 43.5725C9.71446 50.9855 18.1264 55.8656 27.6737 55.8656C37.0572 55.8656 45.3434 51.15 50.3169 43.9502Z" fill="#D4F0E3"/>
</g>
</g>
<defs>
<clipPath id="clip0_130_10179">
<rect width="56" height="56" fill="white"/>
</clipPath>
</defs>
</svg>
