<svg width="25" height="26" viewBox="0 0 25 26" fill="none" xmlns="http://www.w3.org/2000/svg">
<path d="M18.75 8.6665C18.75 6.9426 18.0915 5.2893 16.9194 4.07031C15.7473 2.85132 14.1576 2.1665 12.5 2.1665C10.8424 2.1665 9.25268 2.85132 8.08058 4.07031C6.90848 5.2893 6.25 6.9426 6.25 8.6665C6.25 16.2498 3.125 18.4165 3.125 18.4165H21.875C21.875 18.4165 18.75 16.2498 18.75 8.6665Z" stroke="#A7A7A7" stroke-width="2" stroke-linecap="round" stroke-linejoin="round"/>
<path d="M14.302 21.4165C14.1189 21.7448 13.856 22.0174 13.5398 22.2068C13.2235 22.3963 12.8649 22.496 12.5 22.496C12.135 22.496 11.7764 22.3963 11.4601 22.2068C11.1439 22.0174 10.881 21.7448 10.6979 21.4165" stroke="#A7A7A7" stroke-width="2" stroke-linecap="round" stroke-linejoin="round"/>
</svg>
