<svg width="258" height="258" viewBox="0 0 258 258" fill="none" xmlns="http://www.w3.org/2000/svg">
<path d="M129 258C200.245 258 258 200.245 258 129C258 57.7553 200.245 0 129 0C57.7553 0 0 57.7553 0 129C0 200.245 57.7553 258 129 258Z" fill="#CEFFE8"/>
<g filter="url(#filter0_d_393_546)">
<path d="M150.094 170.508C149.943 170.01 149.631 169.576 149.207 169.274C148.783 168.973 148.27 168.822 147.75 168.844H110.25C109.73 168.822 109.217 168.973 108.793 169.274C108.369 169.576 108.057 170.01 107.906 170.508L100.875 193.945H157.125L150.094 170.508Z" fill="#93DAB8"/>
<path d="M65.5546 173.531C63.6121 173.399 61.8006 172.504 60.5144 171.042C59.2283 169.581 58.5716 167.67 58.6874 165.727V68.8359C58.5716 66.8924 59.2283 64.9818 60.5144 63.52C61.8006 62.0583 63.6121 61.1638 65.5546 61.0312H192.445C194.388 61.1638 196.199 62.0583 197.485 63.52C198.771 64.9818 199.428 66.8924 199.312 68.8359V165.398C199.291 166.49 199.055 167.567 198.616 168.567C198.178 169.567 197.547 170.471 196.758 171.226C195.97 171.982 195.041 172.574 194.023 172.97C193.005 173.365 191.92 173.556 190.828 173.531H65.5546Z" fill="#E9F8F1"/>
<path d="M199.312 145.406V164.156C199.427 166.524 198.599 168.84 197.008 170.598C195.418 172.355 193.195 173.41 190.828 173.531H65.5781C61.7578 173.531 58.6875 169.5 58.6875 164.531V145.406H199.312Z" fill="#26B571"/>
<path d="M175.875 192.281H82.125V196.969H175.875V192.281Z" fill="#67CB9C"/>
<path d="M129 166.5C132.883 166.5 136.031 163.352 136.031 159.469C136.031 155.585 132.883 152.438 129 152.438C125.117 152.438 121.969 155.585 121.969 159.469C121.969 163.352 125.117 166.5 129 166.5Z" fill="#93DAB8"/>
<path d="M107.906 85.6406H106.125C105.893 85.6426 105.666 85.5743 105.473 85.4446C105.281 85.3149 105.132 85.1299 105.047 84.9141C104.955 84.7022 104.93 84.467 104.976 84.2406C105.022 84.0141 105.137 83.8074 105.305 83.6484L106.547 82.3828C106.983 81.9437 107.228 81.3497 107.228 80.7305C107.228 80.1113 106.983 79.5173 106.547 79.0781L101.578 74.1094C101.139 73.6728 100.545 73.4278 99.9258 73.4278C99.3066 73.4278 98.7126 73.6728 98.2734 74.1094L97.0078 75.3516C96.8489 75.5193 96.6421 75.6341 96.4157 75.6802C96.1892 75.7263 95.9541 75.7016 95.7422 75.6094C95.5263 75.5241 95.3414 75.3755 95.2117 75.183C95.082 74.9906 95.0136 74.7633 95.0156 74.5313V72.75C95.0156 72.1284 94.7687 71.5323 94.3292 71.0927C93.8896 70.6532 93.2935 70.4062 92.6719 70.4062H85.6406C85.019 70.4062 84.4229 70.6532 83.9833 71.0927C83.5438 71.5323 83.2969 72.1284 83.2969 72.75V74.5313C83.2989 74.7633 83.2305 74.9906 83.1008 75.183C82.9711 75.3755 82.7862 75.5241 82.5703 75.6094C82.3584 75.7016 82.1233 75.7263 81.8968 75.6802C81.6704 75.6341 81.4636 75.5193 81.3047 75.3516L80.0391 74.1094C79.5999 73.6728 79.0059 73.4278 78.3867 73.4278C77.7675 73.4278 77.1735 73.6728 76.7344 74.1094L71.7656 79.0781C71.3291 79.5173 71.0841 80.1113 71.0841 80.7305C71.0841 81.3497 71.3291 81.9437 71.7656 82.3828L73.0078 83.6484C73.1756 83.8074 73.2903 84.0141 73.3364 84.2406C73.3826 84.467 73.3578 84.7022 73.2656 84.9141C73.1804 85.1299 73.0317 85.3149 72.8393 85.4446C72.6468 85.5743 72.4196 85.6426 72.1875 85.6406H70.4062C69.7846 85.6406 69.1885 85.8876 68.749 86.3271C68.3094 86.7666 68.0625 87.3628 68.0625 87.9844V95.0156C68.0625 95.6372 68.3094 96.2334 68.749 96.6729C69.1885 97.1124 69.7846 97.3594 70.4062 97.3594H72.1875C72.4196 97.3574 72.6468 97.4257 72.8393 97.5554C73.0317 97.6851 73.1804 97.8701 73.2656 98.0859C73.3578 98.2978 73.3826 98.533 73.3364 98.7594C73.2903 98.9859 73.1756 99.1926 73.0078 99.3516L71.7656 100.617C71.5442 100.834 71.368 101.093 71.2473 101.379C71.1266 101.664 71.0638 101.971 71.0625 102.281C71.0713 102.899 71.324 103.489 71.7656 103.922L76.7344 108.891C77.1735 109.327 77.7675 109.572 78.3867 109.572C79.0059 109.572 79.5999 109.327 80.0391 108.891L81.3047 107.648C81.4636 107.481 81.6704 107.366 81.8968 107.32C82.1233 107.274 82.3584 107.298 82.5703 107.391C82.7862 107.476 82.9711 107.625 83.1008 107.817C83.2305 108.009 83.2989 108.237 83.2969 108.469V110.25C83.2969 110.872 83.5438 111.468 83.9833 111.907C84.4229 112.347 85.019 112.594 85.6406 112.594H92.6719C93.2935 112.594 93.8896 112.347 94.3292 111.907C94.7687 111.468 95.0156 110.872 95.0156 110.25V108.469C95.0136 108.237 95.082 108.009 95.2117 107.817C95.3414 107.625 95.5263 107.476 95.7422 107.391C95.9527 107.291 96.1897 107.263 96.4179 107.309C96.646 107.355 96.853 107.475 97.0078 107.648L98.2734 108.891C98.7126 109.327 99.3066 109.572 99.9258 109.572C100.545 109.572 101.139 109.327 101.578 108.891L106.547 103.922C106.988 103.489 107.241 102.899 107.25 102.281C107.249 101.971 107.186 101.664 107.065 101.379C106.945 101.093 106.768 100.834 106.547 100.617L105.305 99.3516C105.137 99.1926 105.022 98.9859 104.976 98.7594C104.93 98.533 104.955 98.2978 105.047 98.0859C105.132 97.8701 105.281 97.6851 105.473 97.5554C105.666 97.4257 105.893 97.3574 106.125 97.3594H107.906C108.528 97.3594 109.124 97.1124 109.564 96.6729C110.003 96.2334 110.25 95.6372 110.25 95.0156V87.9844C110.25 87.3628 110.003 86.7666 109.564 86.3271C109.124 85.8876 108.528 85.6406 107.906 85.6406Z" fill="#26B571"/>
<path d="M89.1562 100.875C94.3339 100.875 98.5312 96.6777 98.5312 91.5C98.5312 86.3223 94.3339 82.125 89.1562 82.125C83.9786 82.125 79.7812 86.3223 79.7812 91.5C79.7812 96.6777 83.9786 100.875 89.1562 100.875Z" fill="#93DAB8"/>
<path d="M187.594 112.594H150.094C148.799 112.594 147.75 113.643 147.75 114.938V138.375C147.75 139.669 148.799 140.719 150.094 140.719H187.594C188.888 140.719 189.938 139.669 189.938 138.375V114.938C189.938 113.643 188.888 112.594 187.594 112.594Z" fill="#93DAB8"/>
<path d="M180.562 84.4688H124.312V89.1562H180.562V84.4688Z" fill="#26B571"/>
<path d="M185.25 93.8438H114.938V98.5312H185.25V93.8438Z" fill="#26B571"/>
<path d="M138.375 121.969H91.5V126.656H138.375V121.969Z" fill="#26B571"/>
<path d="M143.062 131.344H77.4375V136.031H143.062V131.344Z" fill="#26B571"/>
</g>
<defs>
<filter id="filter0_d_393_546" x="50" y="54" width="158" height="158" filterUnits="userSpaceOnUse" color-interpolation-filters="sRGB">
<feFlood flood-opacity="0" result="BackgroundImageFix"/>
<feColorMatrix in="SourceAlpha" type="matrix" values="0 0 0 0 0 0 0 0 0 0 0 0 0 0 0 0 0 0 127 0" result="hardAlpha"/>
<feOffset dy="4"/>
<feGaussianBlur stdDeviation="2"/>
<feComposite in2="hardAlpha" operator="out"/>
<feColorMatrix type="matrix" values="0 0 0 0 0 0 0 0 0 0 0 0 0 0 0 0 0 0 0.25 0"/>
<feBlend mode="normal" in2="BackgroundImageFix" result="effect1_dropShadow_393_546"/>
<feBlend mode="normal" in="SourceGraphic" in2="effect1_dropShadow_393_546" result="shape"/>
</filter>
</defs>
</svg>
