<svg xmlns:xlink="http://www.w3.org/1999/xlink" xmlns="http://www.w3.org/2000/svg" class="fill-current" fill="none" height="14" viewBox="0 0 14 14" width="14"><path d="M13.5 12.9231H12V1.07692C12 0.791305 11.8946 0.517386 11.7071 0.315423C11.5196 0.113461 11.2652 0 11 0H3C2.73478 0 2.48043 0.113461 2.29289 0.315423C2.10536 0.517386 2 0.791305 2 1.07692V12.9231H0.5C0.367392 12.9231 0.240215 12.9798 0.146447 13.0808C0.0526784 13.1818 0 13.3187 0 13.4615C0 13.6043 0.0526784 13.7413 0.146447 13.8423C0.240215 13.9433 0.367392 14 0.5 14H13.5C13.6326 14 13.7598 13.9433 13.8536 13.8423C13.9473 13.7413 14 13.6043 14 13.4615C14 13.3187 13.9473 13.1818 13.8536 13.0808C13.7598 12.9798 13.6326 12.9231 13.5 12.9231ZM11 1.07692V12.9231H10V1.07692H11ZM3 1.07692H9V12.9231H3V1.07692ZM8 7.26923C8 7.42898 7.95601 7.58514 7.8736 7.71796C7.79119 7.85079 7.67406 7.95431 7.53701 8.01544C7.39997 8.07657 7.24917 8.09257 7.10368 8.0614C6.9582 8.03024 6.82456 7.95331 6.71967 7.84036C6.61478 7.7274 6.54335 7.58348 6.51441 7.4268C6.48547 7.27013 6.50032 7.10773 6.55709 6.96014C6.61386 6.81255 6.70999 6.68641 6.83332 6.59766C6.95666 6.50891 7.10166 6.46154 7.25 6.46154C7.44891 6.46154 7.63968 6.54663 7.78033 6.69811C7.92098 6.84958 8 7.05502 8 7.26923Z" fill="#646464"></path></svg>