<svg width="20" height="28" viewBox="0 0 20 28" fill="none" xmlns="http://www.w3.org/2000/svg">
<path d="M5.99983 25.9999C5.99983 26.6665 6.53317 27.3331 7.33317 27.3331H12.6665C13.4665 27.3331 13.9999 26.6665 13.9999 25.9999V24.6665H5.99983V25.9999ZM9.99986 0.666504C4.79983 0.666504 0.666504 4.79984 0.666504 9.99986C0.666504 13.1999 2.26651 15.9999 4.66651 17.5999V20.6665C4.66651 21.3331 5.19983 21.9999 5.99983 21.9999H13.9999C14.7999 21.9999 15.3331 21.3331 15.3331 20.6665V17.5999C17.7331 15.8665 19.3331 13.0665 19.3331 9.99986C19.3331 4.79984 15.1999 0.666504 9.99986 0.666504Z" fill="#222222"/>
</svg>
