<svg width="24" height="24" viewBox="0 0 24 24" fill="none" xmlns="http://www.w3.org/2000/svg">
<path d="M17.0001 8.00003C17.5305 8.00003 18.0392 7.78932 18.4143 7.41425C18.7893 7.03917 19.0001 6.53046 19.0001 6.00003C19.0001 5.4696 18.7893 4.96089 18.4143 4.58582C18.0392 4.21075 17.5305 4.00003 17.0001 4.00003C16.4696 4.00003 15.9609 4.21075 15.5858 4.58582C15.2108 4.96089 15.0001 5.4696 15.0001 6.00003C15.0001 6.53046 15.2108 7.03917 15.5858 7.41425C15.9609 7.78932 16.4696 8.00003 17.0001 8.00003ZM8.92805 11.24C9.03274 11.784 9.02389 12.3437 8.90205 12.884L13.9421 15.421C14.57 14.677 15.4476 14.1876 16.4106 14.0444C17.3736 13.9012 18.3557 14.1142 19.1729 14.6433C19.9901 15.1724 20.5863 15.9814 20.8497 16.9186C21.1131 17.8559 21.0257 18.857 20.6038 19.7344C20.1819 20.6117 19.4545 21.3051 18.5579 21.6846C17.6613 22.064 16.6572 22.1035 15.7336 21.7955C14.8101 21.4876 14.0305 20.8534 13.5411 20.0118C13.0517 19.1702 12.886 18.179 13.0751 17.224L7.98505 14.662C7.44196 15.2711 6.72558 15.6995 5.93202 15.8898C5.13846 16.08 4.30571 16.023 3.54549 15.7263C2.78527 15.4297 2.13397 14.9076 1.67897 14.2302C1.22398 13.5528 0.987062 12.7524 1.00002 11.9365C1.01297 11.1205 1.27517 10.3281 1.75144 9.66544C2.22771 9.0028 2.89526 8.50168 3.66451 8.22933C4.43376 7.95697 5.26791 7.92641 6.05503 8.14175C6.84215 8.35709 7.54457 8.80802 8.06805 9.43403L13.1041 6.91203C12.882 5.96415 13.0133 4.96783 13.4733 4.10981C13.9333 3.25179 14.6904 2.59098 15.6027 2.25124C16.515 1.91149 17.52 1.91613 18.4291 2.26429C19.3383 2.61245 20.0893 3.28023 20.5413 4.14246C20.9933 5.00469 21.1154 6.00218 20.8846 6.94797C20.6538 7.89376 20.086 8.72292 19.2877 9.28004C18.4893 9.83716 17.5152 10.084 16.5478 9.97427C15.5805 9.86455 14.6864 9.40581 14.0331 8.68403L8.92805 11.24ZM5.00005 14C5.53049 14 6.03919 13.7893 6.41427 13.4142C6.78934 13.0392 7.00005 12.5305 7.00005 12C7.00005 11.4696 6.78934 10.9609 6.41427 10.5858C6.03919 10.2107 5.53049 10 5.00005 10C4.46962 10 3.96091 10.2107 3.58584 10.5858C3.21077 10.9609 3.00005 11.4696 3.00005 12C3.00005 12.5305 3.21077 13.0392 3.58584 13.4142C3.96091 13.7893 4.46962 14 5.00005 14ZM17.0001 20C17.5305 20 18.0392 19.7893 18.4143 19.4142C18.7893 19.0392 19.0001 18.5305 19.0001 18C19.0001 17.4696 18.7893 16.9609 18.4143 16.5858C18.0392 16.2107 17.5305 16 17.0001 16C16.4696 16 15.9609 16.2107 15.5858 16.5858C15.2108 16.9609 15.0001 17.4696 15.0001 18C15.0001 18.5305 15.2108 19.0392 15.5858 19.4142C15.9609 19.7893 16.4696 20 17.0001 20Z" fill="#21272A"/>
</svg>
