<svg xmlns:xlink="http://www.w3.org/1999/xlink" xmlns="http://www.w3.org/2000/svg" class="fill-current" fill="none" height="14" viewBox="0 0 14 14" width="14"><path clip-rule="evenodd" d="M2.63217 1.20398C2.3713 1.20398 2.12111 1.30761 1.93665 1.49207C1.75219 1.67653 1.64856 1.92672 1.64856 2.18759V4.48267C1.64856 4.78446 1.40391 5.02912 1.10211 5.02912C0.800317 5.02912 0.555664 4.78446 0.555664 4.48267V2.18759C0.555664 1.63686 0.774438 1.1087 1.16386 0.719278C1.55328 0.329858 2.08144 0.111084 2.63217 0.111084H4.92725C5.22904 0.111084 5.4737 0.355737 5.4737 0.657532C5.4737 0.959327 5.22904 1.20398 4.92725 1.20398H2.63217ZM8.97096 0.657532C8.97096 0.355737 9.21562 0.111084 9.51741 0.111084H11.8125C12.3632 0.111084 12.8914 0.329858 13.2808 0.719278C13.6702 1.1087 13.889 1.63686 13.889 2.18759V4.48267C13.889 4.78446 13.6443 5.02912 13.3425 5.02912C13.0408 5.02912 12.7961 4.78446 12.7961 4.48267V2.18759C12.7961 1.92672 12.6925 1.67653 12.508 1.49207C12.3235 1.30761 12.0734 1.20398 11.8125 1.20398H9.51741C9.21562 1.20398 8.97096 0.959327 8.97096 0.657532ZM1.10211 8.52638C1.40391 8.52638 1.64856 8.77104 1.64856 9.07283V11.3679C1.64856 11.6288 1.75219 11.879 1.93665 12.0634C2.12111 12.2479 2.3713 12.3515 2.63217 12.3515H4.92725C5.22904 12.3515 5.4737 12.5962 5.4737 12.898C5.4737 13.1998 5.22904 13.4444 4.92725 13.4444H2.63217C2.08144 13.4444 1.55328 13.2256 1.16386 12.8362C0.774438 12.4468 0.555664 11.9186 0.555664 11.3679V9.07283C0.555664 8.77104 0.800317 8.52638 1.10211 8.52638ZM13.3425 8.52638C13.6443 8.52638 13.889 8.77104 13.889 9.07283V11.3679C13.889 11.9186 13.6702 12.4468 13.2808 12.8362C12.8914 13.2256 12.3632 13.4444 11.8125 13.4444H9.51741C9.21562 13.4444 8.97096 13.1998 8.97096 12.898C8.97096 12.5962 9.21562 12.3515 9.51741 12.3515H11.8125C12.0734 12.3515 12.3235 12.2479 12.508 12.0634C12.6925 11.879 12.7961 11.6288 12.7961 11.3679V9.07283C12.7961 8.77104 13.0408 8.52638 13.3425 8.52638Z" fill="#646464" fill-rule="evenodd"></path></svg>