<svg width="26" height="26" viewBox="0 0 26 26" fill="none" xmlns="http://www.w3.org/2000/svg">
<path d="M9.48486 5.41208C6.80604 8.4191 4.96766 12.7394 4.79695 13.1464L1.82927 11.8727C0.975733 11.505 0.765636 10.3888 1.4222 9.73226L5.37473 5.77971C5.9919 5.16256 6.88482 4.88681 7.7515 5.05752L9.48486 5.41208ZM11.4414 18.7535C11.8353 19.1474 12.4131 19.2524 12.9121 19.0161C14.4353 18.307 17.705 16.6394 19.8192 14.5252C25.8464 8.49789 25.899 3.58681 25.5444 1.4858C25.4525 0.960552 25.0323 0.540345 24.507 0.448431C22.4061 0.0938857 17.4949 0.146406 11.4676 6.17365C9.35353 8.28784 7.69897 11.5575 6.97675 13.0807C6.74038 13.5797 6.85856 14.1706 7.23938 14.5515L11.4414 18.7535ZM20.594 16.5212C17.5869 19.2 13.2667 21.0383 12.8596 21.2091L14.1333 24.1767C14.501 25.0303 15.6172 25.2403 16.2737 24.5838L20.2263 20.6312C20.8434 20.0141 21.1192 19.1212 20.9485 18.2545L20.594 16.5212ZM9.15656 19.9353C9.41916 21.3272 8.95959 22.6141 8.07976 23.4939C7.06867 24.505 3.93029 25.2535 1.89493 25.6474C0.988867 25.8181 0.187859 25.0171 0.358566 24.111C0.752505 22.0757 1.48786 18.9373 2.51211 17.9262C3.3919 17.0464 4.67877 16.5868 6.07069 16.8494C7.60705 17.1383 8.86764 18.3989 9.15656 19.9353ZM14.4879 8.89183C14.4879 7.44741 15.6697 6.26559 17.1141 6.26559C18.5585 6.26559 19.7404 7.44741 19.7404 8.89183C19.7404 10.3363 18.5585 11.5181 17.1141 11.5181C15.6697 11.5181 14.4879 10.3363 14.4879 8.89183Z" fill="#FD541A"/>
</svg>
