<svg width="33" height="32" viewBox="0 0 33 32" fill="none" xmlns="http://www.w3.org/2000/svg">
<path fill-rule="evenodd" clip-rule="evenodd" d="M5.7156 30.0503C5.63111 30.6399 6.08732 31.1622 6.67871 31.1622C7.03354 31.1622 7.35458 30.9769 7.52354 30.6736C7.77922 30.2287 8.20883 29.479 8.81307 28.4246C10.4051 25.6462 13.2096 20.7522 17.2391 13.7426C17.6109 12.9508 17.2391 12.6307 16.5633 12.6307H10.6325L12.1533 1.94979C12.2378 1.36015 11.7815 0.837891 11.1901 0.837891C10.8522 0.837891 10.5143 1.02321 10.3453 1.32645C8.41732 4.70967 6.70405 7.70687 5.2087 10.3228C3.42776 13.4384 1.95593 16.0132 0.798647 18.0553C0.797609 18.0569 0.795724 18.0596 0.793091 18.0634C0.710024 18.1823 -0.118778 19.3694 1.32244 19.3694H7.2363L5.7156 30.0503ZM26.6759 9.26129C25.5871 9.26129 24.7046 10.1413 24.7046 11.2267V13.1922H22.7334C21.6446 13.1922 20.762 14.0722 20.762 15.1577C20.762 16.2432 21.6446 17.1231 22.7334 17.1231H24.7046V19.0886C24.7046 20.1741 25.5871 21.054 26.6759 21.054C27.7646 21.054 28.6471 20.1741 28.6471 19.0886V17.1231H30.6185C31.7071 17.1231 32.5897 16.2432 32.5897 15.1577C32.5897 14.0722 31.7071 13.1922 30.6185 13.1922H28.6471V11.2267C28.6471 10.1412 27.7646 9.26129 26.6759 9.26129Z" fill="#FCC000"/>
</svg>
